<?xml version="1.0" encoding="UTF-8" standalone="no"?>
<!DOCTYPE svg PUBLIC "-//W3C//DTD SVG 1.1//EN" "http://www.w3.org/Graphics/SVG/1.1/DTD/svg11.dtd">
<svg width="100%" height="100%" viewBox="0 0 1200 630" version="1.1" xmlns="http://www.w3.org/2000/svg" xmlns:xlink="http://www.w3.org/1999/xlink" xml:space="preserve" xmlns:serif="http://www.serif.com/" style="fill-rule:evenodd;clip-rule:evenodd;stroke-linecap:round;stroke-linejoin:round;">
    <rect x="0" y="0" width="1200" height="630" style="fill:rgb(27,27,31);"/>
    <circle cx="720" cy="280" r="340" style="fill:url(#_Radial1);"/>
    <g transform="matrix(0.452148,0,0,0.452148,720,286.8)">
        <g transform="matrix(1,0,0,1,-512,-512)">
            <g id="fills">
                <path d="M512,172L800,338L512,504L224,338L512,172Z" style="fill:white;fill-rule:nonzero;"/>
                <path d="M224,338L512,504L512,836L224,670L224,338Z" style="fill:white;fill-rule:nonzero;"/>
                <path d="M512,504L800,338L800,670L512,836L512,504Z" style="fill:rgb(61,61,61);fill-rule:nonzero;"/>
            </g>
            <g id="strokes">
                <path d="M512,172L800,338L512,504L224,338L512,172Z" style="fill:none;fill-rule:nonzero;stroke:rgb(61,61,61);stroke-width:22px;"/>
                <path d="M224,338L512,504L512,836L224,670L224,338Z" style="fill:none;fill-rule:nonzero;stroke:rgb(61,61,61);stroke-width:22px;"/>
                <path d="M512,504L800,338L800,670L512,836L512,504Z" style="fill:none;fill-rule:nonzero;stroke:rgb(61,61,61);stroke-width:22px;"/>
            </g>
            <g id="terminal">
                <path d="M568,540L728,448L728,614L568,706L568,540Z" style="fill:none;fill-rule:nonzero;stroke:white;stroke-width:16px;"/>
                <path d="M592,646L654,610" style="fill:none;fill-rule:nonzero;stroke:white;stroke-width:14px;stroke-linejoin:miter;"/>
            </g>
        </g>
    </g>
    <g transform="matrix(1,0,0,1,100,310)">
        <g transform="matrix(96,0,0,96,0,0)">
            <path d="M0.333,0.011C0.274,0.011 0.224,0.002 0.181,-0.016C0.137,-0.034 0.104,-0.061 0.08,-0.096C0.056,-0.131 0.043,-0.174 0.041,-0.226L0.186,-0.226C0.188,-0.201 0.196,-0.181 0.208,-0.164C0.221,-0.148 0.238,-0.136 0.259,-0.127C0.28,-0.119 0.304,-0.115 0.331,-0.115C0.358,-0.115 0.381,-0.119 0.401,-0.127C0.42,-0.135 0.436,-0.145 0.447,-0.159C0.458,-0.173 0.463,-0.19 0.463,-0.208C0.463,-0.225 0.458,-0.239 0.448,-0.25C0.439,-0.261 0.424,-0.271 0.406,-0.279C0.387,-0.287 0.364,-0.294 0.338,-0.3L0.258,-0.32C0.196,-0.335 0.148,-0.359 0.113,-0.391C0.078,-0.423 0.061,-0.465 0.061,-0.518C0.061,-0.562 0.073,-0.6 0.096,-0.633C0.12,-0.666 0.153,-0.692 0.194,-0.71C0.235,-0.728 0.282,-0.737 0.335,-0.737C0.388,-0.737 0.435,-0.728 0.475,-0.71C0.515,-0.691 0.547,-0.666 0.569,-0.633C0.591,-0.6 0.603,-0.563 0.604,-0.52L0.46,-0.52C0.457,-0.549 0.444,-0.572 0.422,-0.588C0.4,-0.604 0.37,-0.612 0.333,-0.612C0.308,-0.612 0.286,-0.608 0.268,-0.601C0.251,-0.594 0.237,-0.584 0.228,-0.571C0.218,-0.558 0.214,-0.544 0.214,-0.528C0.214,-0.51 0.219,-0.495 0.23,-0.483C0.241,-0.471 0.255,-0.462 0.273,-0.454C0.291,-0.447 0.31,-0.441 0.33,-0.436L0.396,-0.42C0.426,-0.413 0.455,-0.404 0.481,-0.392C0.508,-0.38 0.531,-0.366 0.551,-0.349C0.57,-0.332 0.586,-0.311 0.597,-0.288C0.608,-0.265 0.613,-0.238 0.613,-0.207C0.613,-0.163 0.602,-0.125 0.58,-0.092C0.558,-0.059 0.526,-0.034 0.484,-0.016C0.442,0.002 0.392,0.011 0.333,0.011Z" style="fill:url(#_Linear2);fill-rule:nonzero;"/>
        </g>
        <g transform="matrix(96,0,0,96,62.859324,0)">
            <path d="M0.195,-0.16L0.195,-0.336L0.217,-0.336L0.396,-0.546L0.565,-0.546L0.329,-0.272L0.295,-0.272L0.195,-0.16ZM0.062,-0L0.062,-0.728L0.209,-0.728L0.209,-0L0.062,-0ZM0.403,-0L0.239,-0.239L0.337,-0.343L0.576,-0L0.403,-0Z" style="fill:url(#_Linear3);fill-rule:nonzero;"/>
        </g>
        <g transform="matrix(96,0,0,96,119.283577,0)">
            <path d="M0.059,0.193L0.092,0.083L0.11,0.088C0.13,0.093 0.147,0.094 0.163,0.092C0.178,0.09 0.19,0.083 0.199,0.073C0.209,0.063 0.214,0.049 0.216,0.031L0.22,0.002L0.015,-0.546L0.171,-0.546L0.262,-0.263C0.274,-0.227 0.283,-0.191 0.29,-0.155C0.297,-0.119 0.305,-0.082 0.314,-0.043L0.28,-0.043C0.289,-0.082 0.297,-0.12 0.306,-0.156C0.315,-0.192 0.325,-0.227 0.337,-0.263L0.433,-0.546L0.587,-0.546L0.355,0.064C0.344,0.094 0.329,0.119 0.312,0.141C0.295,0.162 0.273,0.179 0.248,0.19C0.222,0.202 0.191,0.208 0.154,0.208C0.135,0.208 0.117,0.207 0.1,0.204C0.083,0.201 0.069,0.197 0.059,0.193Z" style="fill:url(#_Linear4);fill-rule:nonzero;"/>
        </g>
        <g transform="matrix(96,0,0,96,177.293109,0)">
            <path d="M0.066,-0L0.066,-0.728L0.355,-0.728C0.408,-0.728 0.452,-0.719 0.488,-0.703C0.524,-0.687 0.55,-0.665 0.568,-0.637C0.586,-0.609 0.595,-0.577 0.595,-0.541C0.595,-0.512 0.589,-0.487 0.578,-0.466C0.566,-0.444 0.551,-0.427 0.531,-0.413C0.511,-0.4 0.489,-0.39 0.464,-0.384L0.464,-0.377C0.491,-0.376 0.517,-0.368 0.541,-0.354C0.565,-0.339 0.585,-0.319 0.6,-0.293C0.615,-0.267 0.623,-0.236 0.623,-0.2C0.623,-0.162 0.614,-0.128 0.595,-0.098C0.576,-0.067 0.548,-0.044 0.511,-0.026C0.474,-0.009 0.428,-0 0.373,-0L0.066,-0ZM0.215,-0.123L0.344,-0.123C0.387,-0.123 0.419,-0.131 0.439,-0.148C0.46,-0.165 0.47,-0.187 0.47,-0.215C0.47,-0.235 0.465,-0.253 0.455,-0.269C0.445,-0.285 0.431,-0.297 0.412,-0.307C0.394,-0.316 0.373,-0.32 0.347,-0.32L0.215,-0.32L0.215,-0.123ZM0.215,-0.422L0.332,-0.422C0.354,-0.422 0.373,-0.426 0.39,-0.433C0.406,-0.441 0.42,-0.452 0.429,-0.466C0.439,-0.48 0.444,-0.497 0.444,-0.517C0.444,-0.543 0.435,-0.565 0.416,-0.581C0.397,-0.598 0.37,-0.606 0.335,-0.606L0.215,-0.606L0.215,-0.422Z" style="fill:url(#_Linear5);fill-rule:nonzero;"/>
        </g>
        <g transform="matrix(96,0,0,96,240.81433,0)">
            <path d="M0.307,0.011C0.252,0.011 0.205,-0.001 0.165,-0.025C0.125,-0.048 0.094,-0.081 0.072,-0.123C0.051,-0.165 0.04,-0.215 0.04,-0.271C0.04,-0.327 0.051,-0.376 0.072,-0.419C0.094,-0.461 0.125,-0.494 0.165,-0.517C0.205,-0.541 0.252,-0.553 0.307,-0.553C0.362,-0.553 0.409,-0.541 0.449,-0.517C0.489,-0.494 0.52,-0.461 0.541,-0.419C0.563,-0.376 0.574,-0.327 0.574,-0.271C0.574,-0.215 0.563,-0.165 0.541,-0.123C0.52,-0.081 0.489,-0.048 0.449,-0.025C0.409,-0.001 0.362,0.011 0.307,0.011ZM0.307,-0.105C0.333,-0.105 0.355,-0.112 0.372,-0.126C0.39,-0.141 0.403,-0.161 0.411,-0.186C0.42,-0.211 0.425,-0.239 0.425,-0.271C0.425,-0.303 0.42,-0.332 0.411,-0.357C0.403,-0.382 0.39,-0.402 0.372,-0.416C0.355,-0.43 0.333,-0.437 0.307,-0.437C0.281,-0.437 0.259,-0.43 0.241,-0.416C0.224,-0.402 0.211,-0.382 0.202,-0.357C0.193,-0.332 0.189,-0.303 0.189,-0.271C0.189,-0.239 0.193,-0.211 0.202,-0.186C0.211,-0.161 0.224,-0.141 0.241,-0.126C0.259,-0.112 0.281,-0.105 0.307,-0.105Z" style="fill:url(#_Linear6);fill-rule:nonzero;"/>
        </g>
        <g transform="matrix(96,0,0,96,297.771152,0)">
            <path d="M0.021,-0L0.232,-0.337L0.232,-0.223L0.031,-0.546L0.189,-0.546L0.239,-0.46C0.254,-0.432 0.268,-0.404 0.281,-0.376C0.294,-0.349 0.306,-0.322 0.319,-0.296L0.263,-0.296C0.277,-0.322 0.29,-0.348 0.302,-0.376C0.315,-0.404 0.329,-0.432 0.345,-0.46L0.397,-0.546L0.552,-0.546L0.348,-0.222L0.348,-0.334L0.56,-0L0.402,-0L0.342,-0.103C0.326,-0.131 0.311,-0.158 0.298,-0.186C0.286,-0.214 0.273,-0.24 0.259,-0.266L0.315,-0.266C0.303,-0.24 0.29,-0.214 0.278,-0.186C0.266,-0.158 0.252,-0.131 0.236,-0.103L0.176,-0L0.021,-0Z" style="fill:url(#_Linear7);fill-rule:nonzero;"/>
        </g>
        <g transform="matrix(96,0,0,96,353.467893,0)">
        </g>
    </g>
    <g transform="matrix(1,0,0,1,100,380)">
        <g transform="matrix(30,0,0,30,0,0)">
            <path d="M0.073,-0L0.073,-0.728L0.204,-0.728L0.204,-0.11L0.525,-0.11L0.525,-0L0.073,-0Z" style="fill:rgb(223,223,214);fill-rule:nonzero;"/>
        </g>
        <g transform="matrix(30,0,0,30,16.962891,0)">
            <path d="M0.304,0.011C0.251,0.011 0.205,-0.001 0.166,-0.024C0.127,-0.048 0.097,-0.081 0.075,-0.123C0.054,-0.165 0.043,-0.214 0.043,-0.27C0.043,-0.327 0.054,-0.376 0.075,-0.419C0.097,-0.461 0.127,-0.494 0.166,-0.517C0.205,-0.541 0.251,-0.553 0.304,-0.553C0.357,-0.553 0.404,-0.541 0.443,-0.517C0.482,-0.494 0.512,-0.461 0.533,-0.419C0.555,-0.376 0.565,-0.327 0.565,-0.27C0.565,-0.214 0.555,-0.165 0.533,-0.123C0.512,-0.081 0.482,-0.048 0.443,-0.024C0.404,-0.001 0.357,0.011 0.304,0.011ZM0.304,-0.092C0.334,-0.092 0.358,-0.1 0.378,-0.116C0.398,-0.132 0.412,-0.153 0.422,-0.18C0.432,-0.207 0.436,-0.237 0.436,-0.271C0.436,-0.304 0.432,-0.334 0.422,-0.361C0.412,-0.388 0.398,-0.41 0.378,-0.426C0.358,-0.442 0.334,-0.45 0.304,-0.45C0.275,-0.45 0.25,-0.442 0.231,-0.426C0.211,-0.41 0.197,-0.388 0.187,-0.361C0.177,-0.335 0.173,-0.304 0.173,-0.271C0.173,-0.237 0.177,-0.207 0.187,-0.18C0.197,-0.153 0.211,-0.132 0.231,-0.116C0.25,-0.1 0.275,-0.092 0.304,-0.092Z" style="fill:rgb(223,223,214);fill-rule:nonzero;"/>
        </g>
        <g transform="matrix(30,0,0,30,35.225379,0)">
            <path d="M0.304,0.011C0.251,0.011 0.205,-0.001 0.166,-0.024C0.127,-0.048 0.097,-0.081 0.075,-0.123C0.054,-0.165 0.043,-0.214 0.043,-0.27C0.043,-0.327 0.054,-0.376 0.075,-0.419C0.097,-0.461 0.127,-0.494 0.166,-0.517C0.205,-0.541 0.251,-0.553 0.304,-0.553C0.335,-0.553 0.363,-0.549 0.389,-0.541C0.415,-0.533 0.438,-0.522 0.459,-0.507C0.479,-0.492 0.496,-0.474 0.51,-0.453C0.524,-0.432 0.534,-0.408 0.54,-0.381L0.421,-0.356C0.417,-0.371 0.412,-0.383 0.406,-0.395C0.399,-0.406 0.391,-0.416 0.381,-0.424C0.371,-0.432 0.36,-0.439 0.347,-0.443C0.334,-0.448 0.32,-0.45 0.305,-0.45C0.276,-0.45 0.251,-0.442 0.231,-0.426C0.212,-0.41 0.197,-0.389 0.187,-0.362C0.178,-0.335 0.173,-0.305 0.173,-0.271C0.173,-0.237 0.178,-0.207 0.187,-0.18C0.197,-0.153 0.212,-0.131 0.231,-0.116C0.251,-0.1 0.276,-0.092 0.305,-0.092C0.321,-0.092 0.335,-0.094 0.348,-0.099C0.361,-0.103 0.372,-0.11 0.382,-0.118C0.392,-0.127 0.401,-0.137 0.407,-0.149C0.414,-0.161 0.419,-0.174 0.422,-0.189L0.541,-0.164C0.535,-0.137 0.525,-0.113 0.511,-0.091C0.498,-0.07 0.48,-0.051 0.46,-0.036C0.439,-0.021 0.416,-0.009 0.389,-0.001C0.363,0.007 0.335,0.011 0.304,0.011Z" style="fill:rgb(223,223,214);fill-rule:nonzero;"/>
        </g>
        <g transform="matrix(30,0,0,30,52.99978,0)">
            <path d="M0.22,0.011C0.185,0.011 0.154,0.005 0.126,-0.007C0.099,-0.02 0.077,-0.038 0.061,-0.063C0.045,-0.087 0.037,-0.118 0.037,-0.154C0.037,-0.184 0.043,-0.21 0.054,-0.23C0.066,-0.25 0.081,-0.266 0.101,-0.278C0.121,-0.29 0.143,-0.299 0.168,-0.305C0.193,-0.312 0.218,-0.316 0.245,-0.319C0.277,-0.322 0.303,-0.326 0.322,-0.328C0.342,-0.331 0.357,-0.335 0.366,-0.341C0.375,-0.347 0.38,-0.356 0.38,-0.368L0.38,-0.371C0.38,-0.389 0.376,-0.404 0.369,-0.416C0.362,-0.429 0.351,-0.438 0.337,-0.445C0.323,-0.452 0.306,-0.455 0.285,-0.455C0.264,-0.455 0.245,-0.452 0.23,-0.445C0.214,-0.439 0.202,-0.43 0.192,-0.42C0.182,-0.409 0.175,-0.398 0.17,-0.386L0.053,-0.41C0.063,-0.442 0.08,-0.469 0.103,-0.49C0.125,-0.511 0.152,-0.527 0.183,-0.537C0.214,-0.548 0.248,-0.553 0.284,-0.553C0.31,-0.553 0.336,-0.55 0.362,-0.544C0.388,-0.538 0.412,-0.527 0.434,-0.513C0.456,-0.499 0.474,-0.48 0.487,-0.456C0.5,-0.432 0.507,-0.401 0.507,-0.365L0.507,-0L0.385,-0L0.385,-0.075L0.38,-0.075C0.372,-0.06 0.361,-0.045 0.347,-0.032C0.333,-0.019 0.315,-0.009 0.294,-0.001C0.273,0.007 0.248,0.011 0.22,0.011ZM0.253,-0.083C0.279,-0.083 0.301,-0.088 0.321,-0.099C0.34,-0.109 0.354,-0.123 0.365,-0.14C0.375,-0.157 0.381,-0.176 0.381,-0.196L0.381,-0.26C0.376,-0.257 0.37,-0.254 0.36,-0.251C0.35,-0.248 0.339,-0.246 0.327,-0.243C0.314,-0.241 0.302,-0.239 0.29,-0.237C0.279,-0.236 0.269,-0.235 0.26,-0.233C0.241,-0.231 0.224,-0.227 0.209,-0.221C0.194,-0.215 0.182,-0.206 0.173,-0.196C0.164,-0.185 0.16,-0.172 0.16,-0.155C0.16,-0.139 0.164,-0.126 0.172,-0.115C0.18,-0.105 0.191,-0.097 0.205,-0.091C0.219,-0.086 0.235,-0.083 0.253,-0.083Z" style="fill:rgb(223,223,214);fill-rule:nonzero;"/>
        </g>
        <g transform="matrix(30,0,0,30,70.225155,0)">
            <rect x="0.067" y="-0.728" width="0.127" height="0.728" style="fill:rgb(223,223,214);fill-rule:nonzero;"/>
        </g>
        <g transform="matrix(30,0,0,30,78.070834,0)">
            <rect x="0.069" y="-0.355" width="0.327" height="0.105" style="fill:rgb(223,223,214);fill-rule:nonzero;"/>
        </g>
        <g transform="matrix(30,0,0,30,92.027859,0)">
            <path d="M0.354,-0.546L0.354,-0.446L0.01,-0.446L0.01,-0.546L0.354,-0.546ZM0.11,-0L0.11,-0.598C0.11,-0.634 0.117,-0.665 0.133,-0.689C0.148,-0.713 0.168,-0.731 0.194,-0.743C0.22,-0.756 0.248,-0.762 0.279,-0.762C0.302,-0.762 0.322,-0.76 0.339,-0.756C0.356,-0.753 0.369,-0.75 0.377,-0.747L0.351,-0.648C0.346,-0.65 0.339,-0.651 0.331,-0.653C0.323,-0.655 0.314,-0.656 0.303,-0.656C0.279,-0.656 0.262,-0.65 0.252,-0.638C0.241,-0.627 0.236,-0.61 0.236,-0.588L0.236,-0L0.11,-0Z" style="fill:rgb(223,223,214);fill-rule:nonzero;"/>
        </g>
        <g transform="matrix(30,0,0,30,103.866118,0)">
            <path d="M0.067,-0L0.067,-0.546L0.194,-0.546L0.194,-0L0.067,-0ZM0.131,-0.623C0.111,-0.623 0.093,-0.63 0.079,-0.644C0.064,-0.657 0.057,-0.674 0.057,-0.692C0.057,-0.712 0.064,-0.728 0.079,-0.742C0.093,-0.755 0.111,-0.762 0.131,-0.762C0.151,-0.762 0.169,-0.755 0.183,-0.742C0.198,-0.728 0.205,-0.712 0.205,-0.693C0.205,-0.674 0.198,-0.657 0.183,-0.644C0.169,-0.63 0.151,-0.623 0.131,-0.623Z" style="fill:rgb(223,223,214);fill-rule:nonzero;"/>
        </g>
        <g transform="matrix(30,0,0,30,111.711797,0)">
            <path d="M0.067,-0L0.067,-0.546L0.19,-0.546L0.19,-0.455L0.196,-0.455C0.206,-0.486 0.223,-0.511 0.248,-0.528C0.272,-0.545 0.3,-0.553 0.331,-0.553C0.338,-0.553 0.346,-0.553 0.355,-0.552C0.364,-0.552 0.371,-0.551 0.377,-0.55L0.377,-0.433C0.372,-0.435 0.364,-0.436 0.352,-0.438C0.34,-0.439 0.329,-0.44 0.318,-0.44C0.294,-0.44 0.273,-0.435 0.254,-0.424C0.235,-0.414 0.221,-0.4 0.21,-0.383C0.2,-0.365 0.194,-0.344 0.194,-0.321L0.194,-0L0.067,-0Z" style="fill:rgb(223,223,214);fill-rule:nonzero;"/>
        </g>
        <g transform="matrix(30,0,0,30,123.62271,0)">
            <path d="M0.274,0.011C0.232,0.011 0.195,0.005 0.163,-0.007C0.13,-0.019 0.104,-0.037 0.083,-0.06C0.063,-0.083 0.049,-0.111 0.043,-0.144L0.162,-0.166C0.169,-0.139 0.182,-0.119 0.201,-0.106C0.221,-0.093 0.246,-0.086 0.276,-0.086C0.308,-0.086 0.332,-0.092 0.351,-0.105C0.369,-0.117 0.378,-0.133 0.378,-0.151C0.378,-0.167 0.372,-0.18 0.36,-0.19C0.348,-0.201 0.33,-0.208 0.305,-0.214L0.212,-0.234C0.16,-0.245 0.122,-0.263 0.096,-0.289C0.071,-0.314 0.058,-0.347 0.058,-0.387C0.058,-0.421 0.067,-0.45 0.086,-0.475C0.105,-0.499 0.13,-0.519 0.163,-0.532C0.196,-0.546 0.235,-0.553 0.278,-0.553C0.319,-0.553 0.355,-0.547 0.385,-0.535C0.415,-0.523 0.439,-0.507 0.457,-0.486C0.476,-0.465 0.488,-0.44 0.496,-0.412L0.382,-0.39C0.376,-0.409 0.365,-0.425 0.348,-0.438C0.332,-0.451 0.309,-0.458 0.28,-0.458C0.253,-0.458 0.23,-0.452 0.212,-0.44C0.194,-0.428 0.185,-0.413 0.185,-0.395C0.185,-0.379 0.191,-0.366 0.203,-0.355C0.215,-0.345 0.235,-0.337 0.263,-0.33L0.356,-0.311C0.407,-0.3 0.446,-0.282 0.471,-0.258C0.496,-0.233 0.508,-0.202 0.508,-0.163C0.508,-0.129 0.498,-0.099 0.479,-0.072C0.459,-0.046 0.431,-0.026 0.396,-0.011C0.36,0.004 0.32,0.011 0.274,0.011Z" style="fill:rgb(223,223,214);fill-rule:nonzero;"/>
        </g>
        <g transform="matrix(30,0,0,30,140.106277,0)">
            <path d="M0.32,-0.546L0.32,-0.446L0.01,-0.446L0.01,-0.546L0.32,-0.546ZM0.087,-0.676L0.214,-0.676L0.214,-0.154C0.214,-0.134 0.218,-0.12 0.227,-0.11C0.235,-0.101 0.249,-0.096 0.269,-0.096C0.274,-0.096 0.282,-0.097 0.292,-0.098C0.301,-0.1 0.309,-0.101 0.315,-0.102L0.335,-0.005C0.321,-0 0.307,0.003 0.292,0.005C0.277,0.006 0.263,0.007 0.25,0.007C0.198,0.007 0.157,-0.006 0.129,-0.032C0.101,-0.058 0.087,-0.095 0.087,-0.143L0.087,-0.676Z" style="fill:rgb(223,223,214);fill-rule:nonzero;"/>
        </g>
        <g transform="matrix(30,0,0,30,150.701167,0)">
        </g>
        <g transform="matrix(30,0,0,30,158.252766,0)">
            <path d="M0.269,0.01C0.226,0.01 0.187,-0.001 0.153,-0.023C0.119,-0.045 0.092,-0.077 0.073,-0.119C0.053,-0.161 0.043,-0.212 0.043,-0.272C0.043,-0.332 0.053,-0.384 0.073,-0.426C0.093,-0.467 0.12,-0.499 0.154,-0.52C0.188,-0.542 0.226,-0.553 0.268,-0.553C0.301,-0.553 0.327,-0.547 0.348,-0.536C0.368,-0.526 0.385,-0.513 0.397,-0.498C0.409,-0.482 0.418,-0.468 0.425,-0.456L0.43,-0.456L0.43,-0.728L0.557,-0.728L0.557,-0L0.433,-0L0.433,-0.086L0.425,-0.086C0.418,-0.073 0.409,-0.059 0.396,-0.044C0.384,-0.029 0.367,-0.017 0.347,-0.006C0.326,0.005 0.3,0.01 0.269,0.01ZM0.303,-0.094C0.331,-0.094 0.354,-0.102 0.373,-0.117C0.393,-0.132 0.407,-0.153 0.417,-0.179C0.427,-0.206 0.432,-0.237 0.432,-0.272C0.432,-0.308 0.427,-0.339 0.418,-0.365C0.408,-0.391 0.393,-0.412 0.374,-0.426C0.354,-0.441 0.331,-0.448 0.303,-0.448C0.274,-0.448 0.251,-0.441 0.231,-0.425C0.212,-0.41 0.198,-0.389 0.188,-0.363C0.178,-0.337 0.173,-0.306 0.173,-0.272C0.173,-0.238 0.178,-0.208 0.188,-0.181C0.198,-0.154 0.212,-0.133 0.232,-0.118C0.251,-0.102 0.275,-0.094 0.303,-0.094Z" style="fill:rgb(223,223,214);fill-rule:nonzero;"/>
        </g>
        <g transform="matrix(30,0,0,30,176.980485,0)">
            <path d="M0.308,0.011C0.254,0.011 0.206,-0 0.167,-0.024C0.127,-0.047 0.097,-0.079 0.075,-0.121C0.054,-0.163 0.043,-0.213 0.043,-0.27C0.043,-0.326 0.054,-0.375 0.075,-0.417C0.096,-0.46 0.126,-0.493 0.164,-0.517C0.203,-0.541 0.248,-0.553 0.3,-0.553C0.334,-0.553 0.365,-0.547 0.395,-0.537C0.425,-0.526 0.452,-0.509 0.475,-0.487C0.498,-0.464 0.517,-0.436 0.53,-0.401C0.543,-0.367 0.55,-0.325 0.55,-0.277L0.55,-0.238L0.103,-0.238L0.103,-0.324L0.487,-0.324L0.427,-0.298C0.427,-0.329 0.423,-0.356 0.413,-0.379C0.404,-0.403 0.389,-0.421 0.371,-0.434C0.352,-0.447 0.329,-0.453 0.301,-0.453C0.273,-0.453 0.249,-0.447 0.23,-0.433C0.21,-0.42 0.195,-0.403 0.185,-0.381C0.175,-0.359 0.17,-0.334 0.17,-0.307L0.17,-0.247C0.17,-0.213 0.175,-0.184 0.187,-0.16C0.199,-0.136 0.215,-0.119 0.236,-0.107C0.258,-0.095 0.282,-0.089 0.31,-0.089C0.329,-0.089 0.346,-0.091 0.361,-0.097C0.376,-0.102 0.389,-0.11 0.4,-0.12C0.411,-0.131 0.419,-0.144 0.425,-0.159L0.542,-0.135C0.533,-0.106 0.518,-0.08 0.497,-0.058C0.475,-0.037 0.449,-0.019 0.417,-0.007C0.385,0.005 0.349,0.011 0.308,0.011Z" style="fill:rgb(223,223,214);fill-rule:nonzero;"/>
        </g>
        <g transform="matrix(30,0,0,30,194.167194,0)">
            <path d="M0.222,-0L0.019,-0.546L0.155,-0.546L0.255,-0.249C0.266,-0.214 0.276,-0.179 0.285,-0.144C0.293,-0.109 0.302,-0.073 0.311,-0.037L0.279,-0.037C0.288,-0.073 0.296,-0.109 0.305,-0.144C0.313,-0.179 0.323,-0.214 0.334,-0.249L0.433,-0.546L0.568,-0.546L0.364,-0L0.222,-0Z" style="fill:rgb(223,223,214);fill-rule:nonzero;"/>
        </g>
        <g transform="matrix(30,0,0,30,211.781616,0)">
        </g>
        <g transform="matrix(30,0,0,30,219.333215,0)">
            <path d="M0.304,0.011C0.251,0.011 0.205,-0.001 0.166,-0.024C0.127,-0.048 0.097,-0.081 0.075,-0.123C0.054,-0.165 0.043,-0.214 0.043,-0.27C0.043,-0.327 0.054,-0.376 0.075,-0.419C0.097,-0.461 0.127,-0.494 0.166,-0.517C0.205,-0.541 0.251,-0.553 0.304,-0.553C0.335,-0.553 0.363,-0.549 0.389,-0.541C0.415,-0.533 0.438,-0.522 0.459,-0.507C0.479,-0.492 0.496,-0.474 0.51,-0.453C0.524,-0.432 0.534,-0.408 0.54,-0.381L0.421,-0.356C0.417,-0.371 0.412,-0.383 0.406,-0.395C0.399,-0.406 0.391,-0.416 0.381,-0.424C0.371,-0.432 0.36,-0.439 0.347,-0.443C0.334,-0.448 0.32,-0.45 0.305,-0.45C0.276,-0.45 0.251,-0.442 0.231,-0.426C0.212,-0.41 0.197,-0.389 0.187,-0.362C0.178,-0.335 0.173,-0.305 0.173,-0.271C0.173,-0.237 0.178,-0.207 0.187,-0.18C0.197,-0.153 0.212,-0.131 0.231,-0.116C0.251,-0.1 0.276,-0.092 0.305,-0.092C0.321,-0.092 0.335,-0.094 0.348,-0.099C0.361,-0.103 0.372,-0.11 0.382,-0.118C0.392,-0.127 0.401,-0.137 0.407,-0.149C0.414,-0.161 0.419,-0.174 0.422,-0.189L0.541,-0.164C0.535,-0.137 0.525,-0.113 0.511,-0.091C0.498,-0.07 0.48,-0.051 0.46,-0.036C0.439,-0.021 0.416,-0.009 0.389,-0.001C0.363,0.007 0.335,0.011 0.304,0.011Z" style="fill:rgb(223,223,214);fill-rule:nonzero;"/>
        </g>
        <g transform="matrix(30,0,0,30,236.814646,0)">
            <path d="M0.304,0.011C0.251,0.011 0.205,-0.001 0.166,-0.024C0.127,-0.048 0.097,-0.081 0.075,-0.123C0.054,-0.165 0.043,-0.214 0.043,-0.27C0.043,-0.327 0.054,-0.376 0.075,-0.419C0.097,-0.461 0.127,-0.494 0.166,-0.517C0.205,-0.541 0.251,-0.553 0.304,-0.553C0.357,-0.553 0.404,-0.541 0.443,-0.517C0.482,-0.494 0.512,-0.461 0.533,-0.419C0.555,-0.376 0.565,-0.327 0.565,-0.27C0.565,-0.214 0.555,-0.165 0.533,-0.123C0.512,-0.081 0.482,-0.048 0.443,-0.024C0.404,-0.001 0.357,0.011 0.304,0.011ZM0.304,-0.092C0.334,-0.092 0.358,-0.1 0.378,-0.116C0.398,-0.132 0.412,-0.153 0.422,-0.18C0.432,-0.207 0.436,-0.237 0.436,-0.271C0.436,-0.304 0.432,-0.334 0.422,-0.361C0.412,-0.388 0.398,-0.41 0.378,-0.426C0.358,-0.442 0.334,-0.45 0.304,-0.45C0.275,-0.45 0.25,-0.442 0.231,-0.426C0.211,-0.41 0.197,-0.388 0.187,-0.361C0.177,-0.335 0.173,-0.304 0.173,-0.271C0.173,-0.237 0.177,-0.207 0.187,-0.18C0.197,-0.153 0.211,-0.132 0.231,-0.116C0.25,-0.1 0.275,-0.092 0.304,-0.092Z" style="fill:rgb(223,223,214);fill-rule:nonzero;"/>
        </g>
        <g transform="matrix(30,0,0,30,255.077135,0)">
            <path d="M0.194,-0.32L0.194,-0L0.067,-0L0.067,-0.546L0.188,-0.546L0.189,-0.411L0.179,-0.411C0.195,-0.458 0.217,-0.494 0.247,-0.517C0.276,-0.541 0.313,-0.553 0.358,-0.553C0.395,-0.553 0.428,-0.545 0.456,-0.529C0.484,-0.513 0.506,-0.489 0.521,-0.459C0.537,-0.428 0.545,-0.391 0.545,-0.347L0.545,-0L0.418,-0L0.418,-0.328C0.418,-0.364 0.408,-0.393 0.389,-0.414C0.37,-0.434 0.344,-0.445 0.311,-0.445C0.288,-0.445 0.268,-0.44 0.251,-0.43C0.233,-0.42 0.219,-0.406 0.209,-0.387C0.199,-0.369 0.194,-0.346 0.194,-0.32Z" style="fill:rgb(223,223,214);fill-rule:nonzero;"/>
        </g>
        <g transform="matrix(30,0,0,30,273.434531,0)">
            <path d="M0.32,-0.546L0.32,-0.446L0.01,-0.446L0.01,-0.546L0.32,-0.546ZM0.087,-0.676L0.214,-0.676L0.214,-0.154C0.214,-0.134 0.218,-0.12 0.227,-0.11C0.235,-0.101 0.249,-0.096 0.269,-0.096C0.274,-0.096 0.282,-0.097 0.292,-0.098C0.301,-0.1 0.309,-0.101 0.315,-0.102L0.335,-0.005C0.321,-0 0.307,0.003 0.292,0.005C0.277,0.006 0.263,0.007 0.25,0.007C0.198,0.007 0.157,-0.006 0.129,-0.032C0.101,-0.058 0.087,-0.095 0.087,-0.143L0.087,-0.676Z" style="fill:rgb(223,223,214);fill-rule:nonzero;"/>
        </g>
        <g transform="matrix(30,0,0,30,284.175906,0)">
            <path d="M0.22,0.011C0.185,0.011 0.154,0.005 0.126,-0.007C0.099,-0.02 0.077,-0.038 0.061,-0.063C0.045,-0.087 0.037,-0.118 0.037,-0.154C0.037,-0.184 0.043,-0.21 0.054,-0.23C0.066,-0.25 0.081,-0.266 0.101,-0.278C0.121,-0.29 0.143,-0.299 0.168,-0.305C0.193,-0.312 0.218,-0.316 0.245,-0.319C0.277,-0.322 0.303,-0.326 0.322,-0.328C0.342,-0.331 0.357,-0.335 0.366,-0.341C0.375,-0.347 0.38,-0.356 0.38,-0.368L0.38,-0.371C0.38,-0.389 0.376,-0.404 0.369,-0.416C0.362,-0.429 0.351,-0.438 0.337,-0.445C0.323,-0.452 0.306,-0.455 0.285,-0.455C0.264,-0.455 0.245,-0.452 0.23,-0.445C0.214,-0.439 0.202,-0.43 0.192,-0.42C0.182,-0.409 0.175,-0.398 0.17,-0.386L0.053,-0.41C0.063,-0.442 0.08,-0.469 0.103,-0.49C0.125,-0.511 0.152,-0.527 0.183,-0.537C0.214,-0.548 0.248,-0.553 0.284,-0.553C0.31,-0.553 0.336,-0.55 0.362,-0.544C0.388,-0.538 0.412,-0.527 0.434,-0.513C0.456,-0.499 0.474,-0.48 0.487,-0.456C0.5,-0.432 0.507,-0.401 0.507,-0.365L0.507,-0L0.385,-0L0.385,-0.075L0.38,-0.075C0.372,-0.06 0.361,-0.045 0.347,-0.032C0.333,-0.019 0.315,-0.009 0.294,-0.001C0.273,0.007 0.248,0.011 0.22,0.011ZM0.253,-0.083C0.279,-0.083 0.301,-0.088 0.321,-0.099C0.34,-0.109 0.354,-0.123 0.365,-0.14C0.375,-0.157 0.381,-0.176 0.381,-0.196L0.381,-0.26C0.376,-0.257 0.37,-0.254 0.36,-0.251C0.35,-0.248 0.339,-0.246 0.327,-0.243C0.314,-0.241 0.302,-0.239 0.29,-0.237C0.279,-0.236 0.269,-0.235 0.26,-0.233C0.241,-0.231 0.224,-0.227 0.209,-0.221C0.194,-0.215 0.182,-0.206 0.173,-0.196C0.164,-0.185 0.16,-0.172 0.16,-0.155C0.16,-0.139 0.164,-0.126 0.172,-0.115C0.18,-0.105 0.191,-0.097 0.205,-0.091C0.219,-0.086 0.235,-0.083 0.253,-0.083Z" style="fill:rgb(223,223,214);fill-rule:nonzero;"/>
        </g>
        <g transform="matrix(30,0,0,30,301.401281,0)">
            <path d="M0.067,-0L0.067,-0.546L0.194,-0.546L0.194,-0L0.067,-0ZM0.131,-0.623C0.111,-0.623 0.093,-0.63 0.079,-0.644C0.064,-0.657 0.057,-0.674 0.057,-0.692C0.057,-0.712 0.064,-0.728 0.079,-0.742C0.093,-0.755 0.111,-0.762 0.131,-0.762C0.151,-0.762 0.169,-0.755 0.183,-0.742C0.198,-0.728 0.205,-0.712 0.205,-0.693C0.205,-0.674 0.198,-0.657 0.183,-0.644C0.169,-0.63 0.151,-0.623 0.131,-0.623Z" style="fill:rgb(223,223,214);fill-rule:nonzero;"/>
        </g>
        <g transform="matrix(30,0,0,30,309.24696,0)">
            <path d="M0.194,-0.32L0.194,-0L0.067,-0L0.067,-0.546L0.188,-0.546L0.189,-0.411L0.179,-0.411C0.195,-0.458 0.217,-0.494 0.247,-0.517C0.276,-0.541 0.313,-0.553 0.358,-0.553C0.395,-0.553 0.428,-0.545 0.456,-0.529C0.484,-0.513 0.506,-0.489 0.521,-0.459C0.537,-0.428 0.545,-0.391 0.545,-0.347L0.545,-0L0.418,-0L0.418,-0.328C0.418,-0.364 0.408,-0.393 0.389,-0.414C0.37,-0.434 0.344,-0.445 0.311,-0.445C0.288,-0.445 0.268,-0.44 0.251,-0.43C0.233,-0.42 0.219,-0.406 0.209,-0.387C0.199,-0.369 0.194,-0.346 0.194,-0.32Z" style="fill:rgb(223,223,214);fill-rule:nonzero;"/>
        </g>
        <g transform="matrix(30,0,0,30,327.604356,0)">
            <path d="M0.308,0.011C0.254,0.011 0.206,-0 0.167,-0.024C0.127,-0.047 0.097,-0.079 0.075,-0.121C0.054,-0.163 0.043,-0.213 0.043,-0.27C0.043,-0.326 0.054,-0.375 0.075,-0.417C0.096,-0.46 0.126,-0.493 0.164,-0.517C0.203,-0.541 0.248,-0.553 0.3,-0.553C0.334,-0.553 0.365,-0.547 0.395,-0.537C0.425,-0.526 0.452,-0.509 0.475,-0.487C0.498,-0.464 0.517,-0.436 0.53,-0.401C0.543,-0.367 0.55,-0.325 0.55,-0.277L0.55,-0.238L0.103,-0.238L0.103,-0.324L0.487,-0.324L0.427,-0.298C0.427,-0.329 0.423,-0.356 0.413,-0.379C0.404,-0.403 0.389,-0.421 0.371,-0.434C0.352,-0.447 0.329,-0.453 0.301,-0.453C0.273,-0.453 0.249,-0.447 0.23,-0.433C0.21,-0.42 0.195,-0.403 0.185,-0.381C0.175,-0.359 0.17,-0.334 0.17,-0.307L0.17,-0.247C0.17,-0.213 0.175,-0.184 0.187,-0.16C0.199,-0.136 0.215,-0.119 0.236,-0.107C0.258,-0.095 0.282,-0.089 0.31,-0.089C0.329,-0.089 0.346,-0.091 0.361,-0.097C0.376,-0.102 0.389,-0.11 0.4,-0.12C0.411,-0.131 0.419,-0.144 0.425,-0.159L0.542,-0.135C0.533,-0.106 0.518,-0.08 0.497,-0.058C0.475,-0.037 0.449,-0.019 0.417,-0.007C0.385,0.005 0.349,0.011 0.308,0.011Z" style="fill:rgb(223,223,214);fill-rule:nonzero;"/>
        </g>
        <g transform="matrix(30,0,0,30,345.347705,0)">
            <path d="M0.067,-0L0.067,-0.546L0.19,-0.546L0.19,-0.455L0.196,-0.455C0.206,-0.486 0.223,-0.511 0.248,-0.528C0.272,-0.545 0.3,-0.553 0.331,-0.553C0.338,-0.553 0.346,-0.553 0.355,-0.552C0.364,-0.552 0.371,-0.551 0.377,-0.55L0.377,-0.433C0.372,-0.435 0.364,-0.436 0.352,-0.438C0.34,-0.439 0.329,-0.44 0.318,-0.44C0.294,-0.44 0.273,-0.435 0.254,-0.424C0.235,-0.414 0.221,-0.4 0.21,-0.383C0.2,-0.365 0.194,-0.344 0.194,-0.321L0.194,-0L0.067,-0Z" style="fill:rgb(223,223,214);fill-rule:nonzero;"/>
        </g>
        <g transform="matrix(30,0,0,30,357.258618,0)">
            <path d="M0.274,0.011C0.232,0.011 0.195,0.005 0.163,-0.007C0.13,-0.019 0.104,-0.037 0.083,-0.06C0.063,-0.083 0.049,-0.111 0.043,-0.144L0.162,-0.166C0.169,-0.139 0.182,-0.119 0.201,-0.106C0.221,-0.093 0.246,-0.086 0.276,-0.086C0.308,-0.086 0.332,-0.092 0.351,-0.105C0.369,-0.117 0.378,-0.133 0.378,-0.151C0.378,-0.167 0.372,-0.18 0.36,-0.19C0.348,-0.201 0.33,-0.208 0.305,-0.214L0.212,-0.234C0.16,-0.245 0.122,-0.263 0.096,-0.289C0.071,-0.314 0.058,-0.347 0.058,-0.387C0.058,-0.421 0.067,-0.45 0.086,-0.475C0.105,-0.499 0.13,-0.519 0.163,-0.532C0.196,-0.546 0.235,-0.553 0.278,-0.553C0.319,-0.553 0.355,-0.547 0.385,-0.535C0.415,-0.523 0.439,-0.507 0.457,-0.486C0.476,-0.465 0.488,-0.44 0.496,-0.412L0.382,-0.39C0.376,-0.409 0.365,-0.425 0.348,-0.438C0.332,-0.451 0.309,-0.458 0.28,-0.458C0.253,-0.458 0.23,-0.452 0.212,-0.44C0.194,-0.428 0.185,-0.413 0.185,-0.395C0.185,-0.379 0.191,-0.366 0.203,-0.355C0.215,-0.345 0.235,-0.337 0.263,-0.33L0.356,-0.311C0.407,-0.3 0.446,-0.282 0.471,-0.258C0.496,-0.233 0.508,-0.202 0.508,-0.163C0.508,-0.129 0.498,-0.099 0.479,-0.072C0.459,-0.046 0.431,-0.026 0.396,-0.011C0.36,0.004 0.32,0.011 0.274,0.011Z" style="fill:rgb(223,223,214);fill-rule:nonzero;"/>
        </g>
    </g>
    <g transform="matrix(1,0,0,1,100,425)">
        <g transform="matrix(22,0,0,22,0,0)">
            <path d="M0.317,-0L0.137,-0L0.137,-0.097L0.311,-0.097C0.366,-0.097 0.412,-0.108 0.448,-0.128C0.485,-0.149 0.512,-0.179 0.53,-0.219C0.548,-0.259 0.558,-0.307 0.558,-0.365C0.558,-0.422 0.548,-0.47 0.53,-0.509C0.512,-0.549 0.485,-0.579 0.45,-0.599C0.414,-0.62 0.37,-0.63 0.317,-0.63L0.133,-0.63L0.133,-0.728L0.324,-0.728C0.396,-0.728 0.457,-0.713 0.508,-0.684C0.559,-0.655 0.598,-0.613 0.626,-0.559C0.653,-0.505 0.667,-0.44 0.667,-0.365C0.667,-0.289 0.653,-0.224 0.626,-0.169C0.598,-0.115 0.558,-0.073 0.506,-0.044C0.454,-0.015 0.391,-0 0.317,-0ZM0.192,-0.728L0.192,-0L0.081,-0L0.081,-0.728L0.192,-0.728Z" style="fill:rgb(152,152,159);fill-rule:nonzero;"/>
        </g>
        <g transform="matrix(22,0,0,22,15.88082,0)">
            <path d="M0.308,0.011C0.254,0.011 0.207,-0 0.168,-0.023C0.13,-0.047 0.1,-0.079 0.079,-0.121C0.058,-0.163 0.047,-0.213 0.047,-0.269C0.047,-0.325 0.057,-0.374 0.078,-0.417C0.099,-0.46 0.128,-0.493 0.166,-0.517C0.203,-0.541 0.248,-0.553 0.298,-0.553C0.329,-0.553 0.36,-0.548 0.389,-0.537C0.418,-0.527 0.444,-0.511 0.467,-0.489C0.49,-0.468 0.508,-0.439 0.522,-0.404C0.535,-0.37 0.542,-0.328 0.542,-0.278L0.542,-0.24L0.107,-0.24L0.107,-0.321L0.487,-0.321L0.437,-0.294C0.437,-0.327 0.431,-0.357 0.421,-0.382C0.411,-0.408 0.395,-0.428 0.375,-0.442C0.354,-0.457 0.329,-0.464 0.299,-0.464C0.268,-0.464 0.242,-0.457 0.221,-0.442C0.199,-0.427 0.183,-0.408 0.172,-0.384C0.16,-0.36 0.155,-0.334 0.155,-0.306L0.155,-0.251C0.155,-0.214 0.161,-0.182 0.174,-0.156C0.187,-0.13 0.205,-0.111 0.228,-0.097C0.251,-0.084 0.278,-0.077 0.309,-0.077C0.329,-0.077 0.347,-0.08 0.363,-0.086C0.38,-0.092 0.394,-0.1 0.406,-0.112C0.417,-0.124 0.426,-0.138 0.433,-0.155L0.533,-0.131C0.525,-0.103 0.51,-0.078 0.49,-0.057C0.469,-0.035 0.443,-0.019 0.412,-0.007C0.382,0.005 0.347,0.011 0.308,0.011Z" style="fill:rgb(152,152,159);fill-rule:nonzero;"/>
        </g>
        <g transform="matrix(22,0,0,22,28.380855,0)">
            <path d="M0.229,-0L0.023,-0.546L0.139,-0.546L0.247,-0.236C0.259,-0.201 0.269,-0.167 0.277,-0.133C0.286,-0.099 0.295,-0.065 0.304,-0.031L0.272,-0.031C0.281,-0.065 0.29,-0.099 0.299,-0.133C0.307,-0.167 0.317,-0.201 0.329,-0.236L0.436,-0.546L0.552,-0.546L0.346,-0L0.229,-0Z" style="fill:rgb(152,152,159);fill-rule:nonzero;"/>
        </g>
        <g transform="matrix(22,0,0,22,40.602661,0)">
            <path d="M0.308,0.011C0.254,0.011 0.207,-0 0.168,-0.023C0.13,-0.047 0.1,-0.079 0.079,-0.121C0.058,-0.163 0.047,-0.213 0.047,-0.269C0.047,-0.325 0.057,-0.374 0.078,-0.417C0.099,-0.46 0.128,-0.493 0.166,-0.517C0.203,-0.541 0.248,-0.553 0.298,-0.553C0.329,-0.553 0.36,-0.548 0.389,-0.537C0.418,-0.527 0.444,-0.511 0.467,-0.489C0.49,-0.468 0.508,-0.439 0.522,-0.404C0.535,-0.37 0.542,-0.328 0.542,-0.278L0.542,-0.24L0.107,-0.24L0.107,-0.321L0.487,-0.321L0.437,-0.294C0.437,-0.327 0.431,-0.357 0.421,-0.382C0.411,-0.408 0.395,-0.428 0.375,-0.442C0.354,-0.457 0.329,-0.464 0.299,-0.464C0.268,-0.464 0.242,-0.457 0.221,-0.442C0.199,-0.427 0.183,-0.408 0.172,-0.384C0.16,-0.36 0.155,-0.334 0.155,-0.306L0.155,-0.251C0.155,-0.214 0.161,-0.182 0.174,-0.156C0.187,-0.13 0.205,-0.111 0.228,-0.097C0.251,-0.084 0.278,-0.077 0.309,-0.077C0.329,-0.077 0.347,-0.08 0.363,-0.086C0.38,-0.092 0.394,-0.1 0.406,-0.112C0.417,-0.124 0.426,-0.138 0.433,-0.155L0.533,-0.131C0.525,-0.103 0.51,-0.078 0.49,-0.057C0.469,-0.035 0.443,-0.019 0.412,-0.007C0.382,0.005 0.347,0.011 0.308,0.011Z" style="fill:rgb(152,152,159);fill-rule:nonzero;"/>
        </g>
        <g transform="matrix(22,0,0,22,53.521641,0)">
            <rect x="0.072" y="-0.728" width="0.107" height="0.728" style="fill:rgb(152,152,159);fill-rule:nonzero;"/>
        </g>
        <g transform="matrix(22,0,0,22,59.062453,0)">
            <path d="M0.302,0.011C0.251,0.011 0.206,-0 0.168,-0.024C0.129,-0.047 0.1,-0.08 0.079,-0.122C0.058,-0.165 0.047,-0.214 0.047,-0.27C0.047,-0.327 0.058,-0.376 0.079,-0.419C0.1,-0.461 0.129,-0.494 0.168,-0.518C0.206,-0.541 0.251,-0.553 0.302,-0.553C0.353,-0.553 0.398,-0.541 0.436,-0.518C0.475,-0.494 0.504,-0.461 0.525,-0.419C0.547,-0.376 0.557,-0.327 0.557,-0.27C0.557,-0.214 0.547,-0.165 0.525,-0.122C0.504,-0.08 0.475,-0.047 0.436,-0.024C0.398,-0 0.353,0.011 0.302,0.011ZM0.302,-0.079C0.335,-0.079 0.362,-0.088 0.384,-0.106C0.406,-0.123 0.422,-0.146 0.432,-0.175C0.443,-0.204 0.448,-0.236 0.448,-0.27C0.448,-0.305 0.443,-0.337 0.432,-0.366C0.422,-0.395 0.406,-0.418 0.384,-0.436C0.362,-0.453 0.335,-0.462 0.302,-0.462C0.269,-0.462 0.242,-0.453 0.22,-0.436C0.199,-0.418 0.183,-0.395 0.172,-0.366C0.162,-0.337 0.156,-0.305 0.156,-0.27C0.156,-0.236 0.162,-0.204 0.172,-0.175C0.183,-0.146 0.199,-0.123 0.22,-0.106C0.242,-0.088 0.269,-0.079 0.302,-0.079Z" style="fill:rgb(152,152,159);fill-rule:nonzero;"/>
        </g>
        <g transform="matrix(22,0,0,22,72.354402,0)">
            <path d="M0.072,0.204L0.072,-0.546L0.177,-0.546L0.177,-0.457L0.186,-0.457C0.192,-0.468 0.201,-0.482 0.213,-0.496C0.224,-0.511 0.24,-0.525 0.261,-0.536C0.282,-0.547 0.309,-0.553 0.343,-0.553C0.387,-0.553 0.426,-0.542 0.46,-0.52C0.495,-0.497 0.522,-0.465 0.541,-0.423C0.561,-0.381 0.571,-0.331 0.571,-0.272C0.571,-0.213 0.561,-0.162 0.542,-0.12C0.522,-0.078 0.495,-0.046 0.461,-0.023C0.427,-0 0.388,0.011 0.343,0.011C0.31,0.011 0.283,0.005 0.262,-0.006C0.241,-0.017 0.225,-0.03 0.213,-0.045C0.201,-0.061 0.192,-0.074 0.186,-0.085L0.18,-0.085L0.18,0.204L0.072,0.204ZM0.319,-0.081C0.351,-0.081 0.377,-0.089 0.398,-0.106C0.419,-0.123 0.435,-0.146 0.446,-0.175C0.456,-0.204 0.462,-0.236 0.462,-0.272C0.462,-0.308 0.456,-0.34 0.446,-0.369C0.435,-0.397 0.419,-0.42 0.398,-0.436C0.377,-0.453 0.351,-0.461 0.319,-0.461C0.289,-0.461 0.263,-0.453 0.242,-0.438C0.221,-0.422 0.205,-0.4 0.194,-0.372C0.183,-0.343 0.178,-0.31 0.178,-0.272C0.178,-0.235 0.183,-0.201 0.194,-0.172C0.205,-0.144 0.221,-0.121 0.242,-0.105C0.263,-0.089 0.289,-0.081 0.319,-0.081Z" style="fill:rgb(152,152,159);fill-rule:nonzero;"/>
        </g>
        <g transform="matrix(22,0,0,22,85.956584,0)">
        </g>
        <g transform="matrix(22,0,0,22,91.819254,0)">
            <rect x="0.072" y="-0.728" width="0.107" height="0.728" style="fill:rgb(152,152,159);fill-rule:nonzero;"/>
        </g>
        <g transform="matrix(22,0,0,22,97.360065,0)">
            <path d="M0.302,0.011C0.251,0.011 0.206,-0 0.168,-0.024C0.129,-0.047 0.1,-0.08 0.079,-0.122C0.058,-0.165 0.047,-0.214 0.047,-0.27C0.047,-0.327 0.058,-0.376 0.079,-0.419C0.1,-0.461 0.129,-0.494 0.168,-0.518C0.206,-0.541 0.251,-0.553 0.302,-0.553C0.353,-0.553 0.398,-0.541 0.436,-0.518C0.475,-0.494 0.504,-0.461 0.525,-0.419C0.547,-0.376 0.557,-0.327 0.557,-0.27C0.557,-0.214 0.547,-0.165 0.525,-0.122C0.504,-0.08 0.475,-0.047 0.436,-0.024C0.398,-0 0.353,0.011 0.302,0.011ZM0.302,-0.079C0.335,-0.079 0.362,-0.088 0.384,-0.106C0.406,-0.123 0.422,-0.146 0.432,-0.175C0.443,-0.204 0.448,-0.236 0.448,-0.27C0.448,-0.305 0.443,-0.337 0.432,-0.366C0.422,-0.395 0.406,-0.418 0.384,-0.436C0.362,-0.453 0.335,-0.462 0.302,-0.462C0.269,-0.462 0.242,-0.453 0.22,-0.436C0.199,-0.418 0.183,-0.395 0.172,-0.366C0.162,-0.337 0.156,-0.305 0.156,-0.27C0.156,-0.236 0.162,-0.204 0.172,-0.175C0.183,-0.146 0.199,-0.123 0.22,-0.106C0.242,-0.088 0.269,-0.079 0.302,-0.079Z" style="fill:rgb(152,152,159);fill-rule:nonzero;"/>
        </g>
        <g transform="matrix(22,0,0,22,110.652014,0)">
            <path d="M0.302,0.011C0.25,0.011 0.206,-0 0.168,-0.024C0.129,-0.047 0.1,-0.08 0.079,-0.122C0.058,-0.165 0.047,-0.214 0.047,-0.27C0.047,-0.327 0.058,-0.376 0.079,-0.419C0.1,-0.461 0.129,-0.494 0.168,-0.518C0.206,-0.541 0.25,-0.553 0.302,-0.553C0.33,-0.553 0.357,-0.549 0.381,-0.542C0.406,-0.534 0.428,-0.524 0.448,-0.51C0.468,-0.496 0.485,-0.479 0.499,-0.459C0.513,-0.439 0.523,-0.417 0.53,-0.392L0.428,-0.367C0.425,-0.381 0.419,-0.394 0.412,-0.406C0.404,-0.417 0.395,-0.427 0.385,-0.436C0.374,-0.444 0.362,-0.451 0.348,-0.455C0.334,-0.46 0.319,-0.462 0.302,-0.462C0.269,-0.462 0.242,-0.453 0.22,-0.436C0.199,-0.418 0.183,-0.395 0.172,-0.366C0.162,-0.337 0.156,-0.305 0.156,-0.27C0.156,-0.235 0.162,-0.204 0.172,-0.175C0.183,-0.146 0.199,-0.123 0.22,-0.105C0.242,-0.088 0.269,-0.079 0.302,-0.079C0.319,-0.079 0.335,-0.082 0.349,-0.087C0.363,-0.091 0.375,-0.098 0.386,-0.107C0.397,-0.115 0.406,-0.126 0.414,-0.138C0.421,-0.15 0.427,-0.164 0.43,-0.178L0.532,-0.154C0.525,-0.128 0.515,-0.105 0.501,-0.085C0.487,-0.064 0.47,-0.047 0.45,-0.033C0.43,-0.018 0.407,-0.007 0.382,0C0.357,0.008 0.33,0.011 0.302,0.011Z" style="fill:rgb(152,152,159);fill-rule:nonzero;"/>
        </g>
        <g transform="matrix(22,0,0,22,123.560896,0)">
            <path d="M0.225,0.012C0.19,0.012 0.159,0.006 0.131,-0.007C0.103,-0.02 0.081,-0.039 0.065,-0.063C0.049,-0.088 0.04,-0.119 0.04,-0.154C0.04,-0.185 0.046,-0.211 0.058,-0.231C0.07,-0.25 0.086,-0.266 0.107,-0.278C0.127,-0.289 0.149,-0.298 0.174,-0.304C0.199,-0.31 0.225,-0.314 0.251,-0.317C0.283,-0.321 0.309,-0.324 0.329,-0.327C0.349,-0.329 0.364,-0.333 0.374,-0.339C0.383,-0.345 0.388,-0.354 0.388,-0.367L0.388,-0.37C0.388,-0.39 0.384,-0.407 0.376,-0.421C0.369,-0.435 0.357,-0.446 0.341,-0.454C0.326,-0.461 0.307,-0.465 0.283,-0.465C0.26,-0.465 0.24,-0.462 0.223,-0.454C0.206,-0.447 0.192,-0.438 0.181,-0.426C0.17,-0.415 0.162,-0.403 0.157,-0.391L0.056,-0.417C0.068,-0.449 0.086,-0.476 0.109,-0.496C0.132,-0.515 0.159,-0.53 0.189,-0.539C0.219,-0.548 0.25,-0.553 0.282,-0.553C0.304,-0.553 0.327,-0.55 0.352,-0.545C0.377,-0.54 0.4,-0.53 0.422,-0.517C0.443,-0.503 0.461,-0.484 0.475,-0.459C0.489,-0.434 0.496,-0.402 0.496,-0.362L0.496,-0L0.392,-0L0.392,-0.075L0.386,-0.075C0.379,-0.061 0.369,-0.047 0.355,-0.034C0.341,-0.02 0.323,-0.009 0.302,-0.001C0.28,0.008 0.255,0.012 0.225,0.012ZM0.249,-0.074C0.278,-0.074 0.303,-0.08 0.324,-0.091C0.345,-0.103 0.361,-0.118 0.372,-0.137C0.383,-0.155 0.389,-0.175 0.389,-0.197L0.389,-0.267C0.385,-0.263 0.377,-0.259 0.366,-0.256C0.355,-0.253 0.343,-0.25 0.329,-0.248C0.315,-0.245 0.302,-0.243 0.289,-0.242C0.275,-0.24 0.265,-0.239 0.256,-0.238C0.236,-0.235 0.218,-0.231 0.201,-0.224C0.184,-0.218 0.171,-0.21 0.161,-0.198C0.151,-0.187 0.146,-0.172 0.146,-0.153C0.146,-0.136 0.151,-0.121 0.159,-0.109C0.168,-0.098 0.18,-0.089 0.196,-0.083C0.211,-0.077 0.229,-0.074 0.249,-0.074Z" style="fill:rgb(152,152,159);fill-rule:nonzero;"/>
        </g>
        <g transform="matrix(22,0,0,22,136.053625,0)">
            <rect x="0.072" y="-0.728" width="0.107" height="0.728" style="fill:rgb(152,152,159);fill-rule:nonzero;"/>
        </g>
        <g transform="matrix(22,0,0,22,141.594436,0)">
            <rect x="0.072" y="-0.728" width="0.107" height="0.728" style="fill:rgb(152,152,159);fill-rule:nonzero;"/>
        </g>
        <g transform="matrix(22,0,0,22,147.285638,0)">
            <path d="M0.065,0.196L0.091,0.109L0.103,0.112C0.122,0.117 0.139,0.118 0.153,0.116C0.168,0.114 0.181,0.107 0.192,0.095C0.203,0.083 0.212,0.066 0.218,0.043L0.23,0.002L0.023,-0.546L0.139,-0.546L0.247,-0.236C0.259,-0.201 0.269,-0.167 0.277,-0.133C0.285,-0.099 0.293,-0.065 0.302,-0.031L0.27,-0.031C0.279,-0.065 0.288,-0.099 0.297,-0.133C0.305,-0.167 0.315,-0.201 0.327,-0.236L0.438,-0.546L0.553,-0.546L0.315,0.076C0.304,0.105 0.291,0.129 0.275,0.149C0.259,0.169 0.24,0.183 0.217,0.193C0.195,0.203 0.169,0.208 0.14,0.208C0.123,0.208 0.108,0.207 0.095,0.204C0.081,0.202 0.072,0.199 0.065,0.196Z" style="fill:rgb(152,152,159);fill-rule:nonzero;"/>
        </g>
        <g transform="matrix(22,0,0,22,159.018029,0)">
            <path d="M0.152,0.007C0.132,0.007 0.115,0 0.101,-0.014C0.087,-0.028 0.08,-0.045 0.08,-0.065C0.08,-0.085 0.087,-0.102 0.101,-0.116C0.115,-0.13 0.132,-0.136 0.152,-0.136C0.172,-0.136 0.189,-0.13 0.203,-0.116C0.217,-0.102 0.224,-0.085 0.224,-0.065C0.224,-0.045 0.217,-0.028 0.203,-0.014C0.189,0 0.172,0.007 0.152,0.007Z" style="fill:rgb(152,152,159);fill-rule:nonzero;"/>
        </g>
        <g transform="matrix(22,0,0,22,165.466765,0)">
        </g>
        <g transform="matrix(22,0,0,22,171.329435,0)">
            <path d="M0.325,0.012C0.27,0.012 0.223,0.003 0.183,-0.014C0.143,-0.031 0.112,-0.056 0.089,-0.088C0.067,-0.12 0.054,-0.158 0.052,-0.202L0.163,-0.202C0.166,-0.176 0.174,-0.154 0.189,-0.137C0.204,-0.119 0.223,-0.106 0.247,-0.098C0.271,-0.089 0.296,-0.085 0.324,-0.085C0.355,-0.085 0.382,-0.09 0.406,-0.1C0.431,-0.11 0.45,-0.123 0.463,-0.141C0.477,-0.159 0.484,-0.179 0.484,-0.202C0.484,-0.224 0.478,-0.241 0.466,-0.255C0.454,-0.268 0.438,-0.279 0.417,-0.288C0.396,-0.297 0.373,-0.305 0.346,-0.312L0.261,-0.335C0.202,-0.351 0.155,-0.375 0.122,-0.406C0.088,-0.438 0.072,-0.478 0.072,-0.528C0.072,-0.57 0.083,-0.607 0.106,-0.638C0.128,-0.669 0.159,-0.694 0.198,-0.711C0.237,-0.729 0.281,-0.737 0.33,-0.737C0.379,-0.737 0.423,-0.729 0.461,-0.711C0.499,-0.694 0.529,-0.67 0.55,-0.64C0.572,-0.609 0.584,-0.575 0.585,-0.536L0.476,-0.536C0.472,-0.569 0.457,-0.595 0.43,-0.613C0.403,-0.632 0.368,-0.641 0.327,-0.641C0.298,-0.641 0.272,-0.636 0.251,-0.627C0.229,-0.618 0.212,-0.605 0.201,-0.589C0.189,-0.573 0.183,-0.555 0.183,-0.534C0.183,-0.511 0.19,-0.493 0.204,-0.478C0.218,-0.464 0.235,-0.453 0.256,-0.445C0.276,-0.436 0.296,-0.43 0.314,-0.425L0.385,-0.406C0.408,-0.4 0.432,-0.393 0.456,-0.383C0.481,-0.373 0.503,-0.36 0.524,-0.344C0.545,-0.328 0.562,-0.309 0.575,-0.285C0.588,-0.262 0.594,-0.234 0.594,-0.201C0.594,-0.16 0.584,-0.123 0.563,-0.091C0.541,-0.059 0.511,-0.034 0.471,-0.015C0.43,0.003 0.382,0.012 0.325,0.012Z" style="fill:rgb(152,152,159);fill-rule:nonzero;"/>
        </g>
        <g transform="matrix(22,0,0,22,185.541345,0)">
            <path d="M0.065,0.196L0.091,0.109L0.103,0.112C0.122,0.117 0.139,0.118 0.153,0.116C0.168,0.114 0.181,0.107 0.192,0.095C0.203,0.083 0.212,0.066 0.218,0.043L0.23,0.002L0.023,-0.546L0.139,-0.546L0.247,-0.236C0.259,-0.201 0.269,-0.167 0.277,-0.133C0.285,-0.099 0.293,-0.065 0.302,-0.031L0.27,-0.031C0.279,-0.065 0.288,-0.099 0.297,-0.133C0.305,-0.167 0.315,-0.201 0.327,-0.236L0.438,-0.546L0.553,-0.546L0.315,0.076C0.304,0.105 0.291,0.129 0.275,0.149C0.259,0.169 0.24,0.183 0.217,0.193C0.195,0.203 0.169,0.208 0.14,0.208C0.123,0.208 0.108,0.207 0.095,0.204C0.081,0.202 0.072,0.199 0.065,0.196Z" style="fill:rgb(152,152,159);fill-rule:nonzero;"/>
        </g>
        <g transform="matrix(22,0,0,22,198.197563,0)">
            <path d="M0.18,-0.323L0.18,-0L0.072,-0L0.072,-0.546L0.175,-0.546L0.176,-0.412L0.165,-0.412C0.181,-0.461 0.204,-0.497 0.234,-0.519C0.264,-0.542 0.301,-0.553 0.344,-0.553C0.381,-0.553 0.413,-0.545 0.441,-0.529C0.469,-0.514 0.49,-0.491 0.506,-0.46C0.521,-0.43 0.529,-0.392 0.529,-0.347L0.529,-0L0.422,-0L0.422,-0.333C0.422,-0.373 0.411,-0.404 0.391,-0.426C0.371,-0.448 0.342,-0.459 0.307,-0.459C0.283,-0.459 0.261,-0.454 0.242,-0.443C0.222,-0.433 0.207,-0.417 0.196,-0.397C0.185,-0.377 0.18,-0.352 0.18,-0.323Z" style="fill:rgb(152,152,159);fill-rule:nonzero;"/>
        </g>
        <g transform="matrix(22,0,0,22,211.427632,0)">
            <path d="M0.302,0.011C0.25,0.011 0.206,-0 0.168,-0.024C0.129,-0.047 0.1,-0.08 0.079,-0.122C0.058,-0.165 0.047,-0.214 0.047,-0.27C0.047,-0.327 0.058,-0.376 0.079,-0.419C0.1,-0.461 0.129,-0.494 0.168,-0.518C0.206,-0.541 0.25,-0.553 0.302,-0.553C0.33,-0.553 0.357,-0.549 0.381,-0.542C0.406,-0.534 0.428,-0.524 0.448,-0.51C0.468,-0.496 0.485,-0.479 0.499,-0.459C0.513,-0.439 0.523,-0.417 0.53,-0.392L0.428,-0.367C0.425,-0.381 0.419,-0.394 0.412,-0.406C0.404,-0.417 0.395,-0.427 0.385,-0.436C0.374,-0.444 0.362,-0.451 0.348,-0.455C0.334,-0.46 0.319,-0.462 0.302,-0.462C0.269,-0.462 0.242,-0.453 0.22,-0.436C0.199,-0.418 0.183,-0.395 0.172,-0.366C0.162,-0.337 0.156,-0.305 0.156,-0.27C0.156,-0.235 0.162,-0.204 0.172,-0.175C0.183,-0.146 0.199,-0.123 0.22,-0.105C0.242,-0.088 0.269,-0.079 0.302,-0.079C0.319,-0.079 0.335,-0.082 0.349,-0.087C0.363,-0.091 0.375,-0.098 0.386,-0.107C0.397,-0.115 0.406,-0.126 0.414,-0.138C0.421,-0.15 0.427,-0.164 0.43,-0.178L0.532,-0.154C0.525,-0.128 0.515,-0.105 0.501,-0.085C0.487,-0.064 0.47,-0.047 0.45,-0.033C0.43,-0.018 0.407,-0.007 0.382,0C0.357,0.008 0.33,0.011 0.302,0.011Z" style="fill:rgb(152,152,159);fill-rule:nonzero;"/>
        </g>
        <g transform="matrix(22,0,0,22,224.12167,0)">
        </g>
        <g transform="matrix(22,0,0,22,229.984339,0)">
            <path d="M0.072,-0L0.072,-0.546L0.176,-0.546L0.176,-0.458L0.182,-0.458C0.192,-0.488 0.21,-0.511 0.235,-0.528C0.26,-0.545 0.288,-0.554 0.32,-0.554C0.327,-0.554 0.335,-0.553 0.344,-0.553C0.353,-0.552 0.36,-0.552 0.366,-0.551L0.366,-0.448C0.362,-0.45 0.354,-0.451 0.343,-0.452C0.332,-0.453 0.321,-0.454 0.309,-0.454C0.285,-0.454 0.262,-0.449 0.243,-0.438C0.223,-0.428 0.208,-0.413 0.196,-0.395C0.185,-0.377 0.18,-0.355 0.18,-0.331L0.18,-0L0.072,-0Z" style="fill:rgb(152,152,159);fill-rule:nonzero;"/>
        </g>
        <g transform="matrix(22,0,0,22,238.073842,0)">
            <path d="M0.308,0.011C0.254,0.011 0.207,-0 0.168,-0.023C0.13,-0.047 0.1,-0.079 0.079,-0.121C0.058,-0.163 0.047,-0.213 0.047,-0.269C0.047,-0.325 0.057,-0.374 0.078,-0.417C0.099,-0.46 0.128,-0.493 0.166,-0.517C0.203,-0.541 0.248,-0.553 0.298,-0.553C0.329,-0.553 0.36,-0.548 0.389,-0.537C0.418,-0.527 0.444,-0.511 0.467,-0.489C0.49,-0.468 0.508,-0.439 0.522,-0.404C0.535,-0.37 0.542,-0.328 0.542,-0.278L0.542,-0.24L0.107,-0.24L0.107,-0.321L0.487,-0.321L0.437,-0.294C0.437,-0.327 0.431,-0.357 0.421,-0.382C0.411,-0.408 0.395,-0.428 0.375,-0.442C0.354,-0.457 0.329,-0.464 0.299,-0.464C0.268,-0.464 0.242,-0.457 0.221,-0.442C0.199,-0.427 0.183,-0.408 0.172,-0.384C0.16,-0.36 0.155,-0.334 0.155,-0.306L0.155,-0.251C0.155,-0.214 0.161,-0.182 0.174,-0.156C0.187,-0.13 0.205,-0.111 0.228,-0.097C0.251,-0.084 0.278,-0.077 0.309,-0.077C0.329,-0.077 0.347,-0.08 0.363,-0.086C0.38,-0.092 0.394,-0.1 0.406,-0.112C0.417,-0.124 0.426,-0.138 0.433,-0.155L0.533,-0.131C0.525,-0.103 0.51,-0.078 0.49,-0.057C0.469,-0.035 0.443,-0.019 0.412,-0.007C0.382,0.005 0.347,0.011 0.308,0.011Z" style="fill:rgb(152,152,159);fill-rule:nonzero;"/>
        </g>
        <g transform="matrix(22,0,0,22,250.992823,0)">
            <path d="M0.072,-0L0.072,-0.546L0.175,-0.546L0.177,-0.419L0.169,-0.419C0.177,-0.45 0.189,-0.476 0.205,-0.496C0.221,-0.516 0.24,-0.531 0.262,-0.54C0.284,-0.55 0.307,-0.555 0.331,-0.555C0.37,-0.555 0.402,-0.543 0.427,-0.518C0.451,-0.494 0.467,-0.459 0.476,-0.416L0.463,-0.416C0.47,-0.446 0.482,-0.471 0.5,-0.492C0.517,-0.512 0.538,-0.528 0.563,-0.539C0.588,-0.55 0.615,-0.555 0.643,-0.555C0.675,-0.555 0.705,-0.548 0.731,-0.534C0.757,-0.52 0.778,-0.499 0.793,-0.472C0.808,-0.444 0.816,-0.41 0.816,-0.368L0.816,-0L0.708,-0L0.708,-0.357C0.708,-0.394 0.698,-0.42 0.678,-0.437C0.658,-0.453 0.634,-0.461 0.606,-0.461C0.584,-0.461 0.564,-0.456 0.548,-0.447C0.532,-0.437 0.519,-0.424 0.51,-0.407C0.501,-0.391 0.497,-0.371 0.497,-0.35L0.497,-0L0.391,-0L0.391,-0.364C0.391,-0.394 0.382,-0.417 0.363,-0.435C0.344,-0.452 0.32,-0.461 0.292,-0.461C0.272,-0.461 0.253,-0.456 0.236,-0.447C0.219,-0.438 0.205,-0.424 0.195,-0.406C0.185,-0.388 0.18,-0.366 0.18,-0.339L0.18,-0L0.072,-0Z" style="fill:rgb(152,152,159);fill-rule:nonzero;"/>
        </g>
        <g transform="matrix(22,0,0,22,270.531132,0)">
            <path d="M0.302,0.011C0.251,0.011 0.206,-0 0.168,-0.024C0.129,-0.047 0.1,-0.08 0.079,-0.122C0.058,-0.165 0.047,-0.214 0.047,-0.27C0.047,-0.327 0.058,-0.376 0.079,-0.419C0.1,-0.461 0.129,-0.494 0.168,-0.518C0.206,-0.541 0.251,-0.553 0.302,-0.553C0.353,-0.553 0.398,-0.541 0.436,-0.518C0.475,-0.494 0.504,-0.461 0.525,-0.419C0.547,-0.376 0.557,-0.327 0.557,-0.27C0.557,-0.214 0.547,-0.165 0.525,-0.122C0.504,-0.08 0.475,-0.047 0.436,-0.024C0.398,-0 0.353,0.011 0.302,0.011ZM0.302,-0.079C0.335,-0.079 0.362,-0.088 0.384,-0.106C0.406,-0.123 0.422,-0.146 0.432,-0.175C0.443,-0.204 0.448,-0.236 0.448,-0.27C0.448,-0.305 0.443,-0.337 0.432,-0.366C0.422,-0.395 0.406,-0.418 0.384,-0.436C0.362,-0.453 0.335,-0.462 0.302,-0.462C0.269,-0.462 0.242,-0.453 0.22,-0.436C0.199,-0.418 0.183,-0.395 0.172,-0.366C0.162,-0.337 0.156,-0.305 0.156,-0.27C0.156,-0.236 0.162,-0.204 0.172,-0.175C0.183,-0.146 0.199,-0.123 0.22,-0.106C0.242,-0.088 0.269,-0.079 0.302,-0.079Z" style="fill:rgb(152,152,159);fill-rule:nonzero;"/>
        </g>
        <g transform="matrix(22,0,0,22,283.823081,0)">
            <path d="M0.306,-0.546L0.306,-0.459L0.01,-0.459L0.01,-0.546L0.306,-0.546ZM0.09,-0.676L0.197,-0.676L0.197,-0.148C0.197,-0.126 0.202,-0.109 0.211,-0.099C0.22,-0.089 0.235,-0.084 0.256,-0.084C0.262,-0.084 0.269,-0.085 0.278,-0.086C0.288,-0.087 0.295,-0.089 0.302,-0.09L0.321,-0.004C0.309,0 0.297,0.003 0.284,0.005C0.271,0.006 0.258,0.007 0.246,0.007C0.196,0.007 0.158,-0.006 0.13,-0.031C0.103,-0.057 0.09,-0.092 0.09,-0.139L0.09,-0.676Z" style="fill:rgb(152,152,159);fill-rule:nonzero;"/>
        </g>
        <g transform="matrix(22,0,0,22,291.091663,0)">
            <path d="M0.308,0.011C0.254,0.011 0.207,-0 0.168,-0.023C0.13,-0.047 0.1,-0.079 0.079,-0.121C0.058,-0.163 0.047,-0.213 0.047,-0.269C0.047,-0.325 0.057,-0.374 0.078,-0.417C0.099,-0.46 0.128,-0.493 0.166,-0.517C0.203,-0.541 0.248,-0.553 0.298,-0.553C0.329,-0.553 0.36,-0.548 0.389,-0.537C0.418,-0.527 0.444,-0.511 0.467,-0.489C0.49,-0.468 0.508,-0.439 0.522,-0.404C0.535,-0.37 0.542,-0.328 0.542,-0.278L0.542,-0.24L0.107,-0.24L0.107,-0.321L0.487,-0.321L0.437,-0.294C0.437,-0.327 0.431,-0.357 0.421,-0.382C0.411,-0.408 0.395,-0.428 0.375,-0.442C0.354,-0.457 0.329,-0.464 0.299,-0.464C0.268,-0.464 0.242,-0.457 0.221,-0.442C0.199,-0.427 0.183,-0.408 0.172,-0.384C0.16,-0.36 0.155,-0.334 0.155,-0.306L0.155,-0.251C0.155,-0.214 0.161,-0.182 0.174,-0.156C0.187,-0.13 0.205,-0.111 0.228,-0.097C0.251,-0.084 0.278,-0.077 0.309,-0.077C0.329,-0.077 0.347,-0.08 0.363,-0.086C0.38,-0.092 0.394,-0.1 0.406,-0.112C0.417,-0.124 0.426,-0.138 0.433,-0.155L0.533,-0.131C0.525,-0.103 0.51,-0.078 0.49,-0.057C0.469,-0.035 0.443,-0.019 0.412,-0.007C0.382,0.005 0.347,0.011 0.308,0.011Z" style="fill:rgb(152,152,159);fill-rule:nonzero;"/>
        </g>
        <g transform="matrix(22,0,0,22,304.010644,0)">
            <rect x="0.072" y="-0.728" width="0.107" height="0.728" style="fill:rgb(152,152,159);fill-rule:nonzero;"/>
        </g>
        <g transform="matrix(22,0,0,22,309.701846,0)">
            <path d="M0.065,0.196L0.091,0.109L0.103,0.112C0.122,0.117 0.139,0.118 0.153,0.116C0.168,0.114 0.181,0.107 0.192,0.095C0.203,0.083 0.212,0.066 0.218,0.043L0.23,0.002L0.023,-0.546L0.139,-0.546L0.247,-0.236C0.259,-0.201 0.269,-0.167 0.277,-0.133C0.285,-0.099 0.293,-0.065 0.302,-0.031L0.27,-0.031C0.279,-0.065 0.288,-0.099 0.297,-0.133C0.305,-0.167 0.315,-0.201 0.327,-0.236L0.438,-0.546L0.553,-0.546L0.315,0.076C0.304,0.105 0.291,0.129 0.275,0.149C0.259,0.169 0.24,0.183 0.217,0.193C0.195,0.203 0.169,0.208 0.14,0.208C0.123,0.208 0.108,0.207 0.095,0.204C0.081,0.202 0.072,0.199 0.065,0.196Z" style="fill:rgb(152,152,159);fill-rule:nonzero;"/>
        </g>
        <g transform="matrix(22,0,0,22,321.434236,0)">
            <path d="M0.152,0.007C0.132,0.007 0.115,0 0.101,-0.014C0.087,-0.028 0.08,-0.045 0.08,-0.065C0.08,-0.085 0.087,-0.102 0.101,-0.116C0.115,-0.13 0.132,-0.136 0.152,-0.136C0.172,-0.136 0.189,-0.13 0.203,-0.116C0.217,-0.102 0.224,-0.085 0.224,-0.065C0.224,-0.045 0.217,-0.028 0.203,-0.014C0.189,0 0.172,0.007 0.152,0.007Z" style="fill:rgb(152,152,159);fill-rule:nonzero;"/>
        </g>
        <g transform="matrix(22,0,0,22,327.882973,0)">
        </g>
        <g transform="matrix(22,0,0,22,333.745642,0)">
            <path d="M0.325,0.012C0.27,0.012 0.223,0.003 0.183,-0.014C0.143,-0.031 0.112,-0.056 0.089,-0.088C0.067,-0.12 0.054,-0.158 0.052,-0.202L0.163,-0.202C0.166,-0.176 0.174,-0.154 0.189,-0.137C0.204,-0.119 0.223,-0.106 0.247,-0.098C0.271,-0.089 0.296,-0.085 0.324,-0.085C0.355,-0.085 0.382,-0.09 0.406,-0.1C0.431,-0.11 0.45,-0.123 0.463,-0.141C0.477,-0.159 0.484,-0.179 0.484,-0.202C0.484,-0.224 0.478,-0.241 0.466,-0.255C0.454,-0.268 0.438,-0.279 0.417,-0.288C0.396,-0.297 0.373,-0.305 0.346,-0.312L0.261,-0.335C0.202,-0.351 0.155,-0.375 0.122,-0.406C0.088,-0.438 0.072,-0.478 0.072,-0.528C0.072,-0.57 0.083,-0.607 0.106,-0.638C0.128,-0.669 0.159,-0.694 0.198,-0.711C0.237,-0.729 0.281,-0.737 0.33,-0.737C0.379,-0.737 0.423,-0.729 0.461,-0.711C0.499,-0.694 0.529,-0.67 0.55,-0.64C0.572,-0.609 0.584,-0.575 0.585,-0.536L0.476,-0.536C0.472,-0.569 0.457,-0.595 0.43,-0.613C0.403,-0.632 0.368,-0.641 0.327,-0.641C0.298,-0.641 0.272,-0.636 0.251,-0.627C0.229,-0.618 0.212,-0.605 0.201,-0.589C0.189,-0.573 0.183,-0.555 0.183,-0.534C0.183,-0.511 0.19,-0.493 0.204,-0.478C0.218,-0.464 0.235,-0.453 0.256,-0.445C0.276,-0.436 0.296,-0.43 0.314,-0.425L0.385,-0.406C0.408,-0.4 0.432,-0.393 0.456,-0.383C0.481,-0.373 0.503,-0.36 0.524,-0.344C0.545,-0.328 0.562,-0.309 0.575,-0.285C0.588,-0.262 0.594,-0.234 0.594,-0.201C0.594,-0.16 0.584,-0.123 0.563,-0.091C0.541,-0.059 0.511,-0.034 0.471,-0.015C0.43,0.003 0.382,0.012 0.325,0.012Z" style="fill:rgb(152,152,159);fill-rule:nonzero;"/>
        </g>
        <g transform="matrix(22,0,0,22,347.957552,0)">
            <path d="M0.306,-0.546L0.306,-0.459L0.01,-0.459L0.01,-0.546L0.306,-0.546ZM0.09,-0.676L0.197,-0.676L0.197,-0.148C0.197,-0.126 0.202,-0.109 0.211,-0.099C0.22,-0.089 0.235,-0.084 0.256,-0.084C0.262,-0.084 0.269,-0.085 0.278,-0.086C0.288,-0.087 0.295,-0.089 0.302,-0.09L0.321,-0.004C0.309,0 0.297,0.003 0.284,0.005C0.271,0.006 0.258,0.007 0.246,0.007C0.196,0.007 0.158,-0.006 0.13,-0.031C0.103,-0.057 0.09,-0.092 0.09,-0.139L0.09,-0.676Z" style="fill:rgb(152,152,159);fill-rule:nonzero;"/>
        </g>
        <g transform="matrix(22,0,0,22,355.5484,0)">
            <path d="M0.225,0.012C0.19,0.012 0.159,0.006 0.131,-0.007C0.103,-0.02 0.081,-0.039 0.065,-0.063C0.049,-0.088 0.04,-0.119 0.04,-0.154C0.04,-0.185 0.046,-0.211 0.058,-0.231C0.07,-0.25 0.086,-0.266 0.107,-0.278C0.127,-0.289 0.149,-0.298 0.174,-0.304C0.199,-0.31 0.225,-0.314 0.251,-0.317C0.283,-0.321 0.309,-0.324 0.329,-0.327C0.349,-0.329 0.364,-0.333 0.374,-0.339C0.383,-0.345 0.388,-0.354 0.388,-0.367L0.388,-0.37C0.388,-0.39 0.384,-0.407 0.376,-0.421C0.369,-0.435 0.357,-0.446 0.341,-0.454C0.326,-0.461 0.307,-0.465 0.283,-0.465C0.26,-0.465 0.24,-0.462 0.223,-0.454C0.206,-0.447 0.192,-0.438 0.181,-0.426C0.17,-0.415 0.162,-0.403 0.157,-0.391L0.056,-0.417C0.068,-0.449 0.086,-0.476 0.109,-0.496C0.132,-0.515 0.159,-0.53 0.189,-0.539C0.219,-0.548 0.25,-0.553 0.282,-0.553C0.304,-0.553 0.327,-0.55 0.352,-0.545C0.377,-0.54 0.4,-0.53 0.422,-0.517C0.443,-0.503 0.461,-0.484 0.475,-0.459C0.489,-0.434 0.496,-0.402 0.496,-0.362L0.496,-0L0.392,-0L0.392,-0.075L0.386,-0.075C0.379,-0.061 0.369,-0.047 0.355,-0.034C0.341,-0.02 0.323,-0.009 0.302,-0.001C0.28,0.008 0.255,0.012 0.225,0.012ZM0.249,-0.074C0.278,-0.074 0.303,-0.08 0.324,-0.091C0.345,-0.103 0.361,-0.118 0.372,-0.137C0.383,-0.155 0.389,-0.175 0.389,-0.197L0.389,-0.267C0.385,-0.263 0.377,-0.259 0.366,-0.256C0.355,-0.253 0.343,-0.25 0.329,-0.248C0.315,-0.245 0.302,-0.243 0.289,-0.242C0.275,-0.24 0.265,-0.239 0.256,-0.238C0.236,-0.235 0.218,-0.231 0.201,-0.224C0.184,-0.218 0.171,-0.21 0.161,-0.198C0.151,-0.187 0.146,-0.172 0.146,-0.153C0.146,-0.136 0.151,-0.121 0.159,-0.109C0.168,-0.098 0.18,-0.089 0.196,-0.083C0.211,-0.077 0.229,-0.074 0.249,-0.074Z" style="fill:rgb(152,152,159);fill-rule:nonzero;"/>
        </g>
        <g transform="matrix(22,0,0,22,367.697379,0)">
            <path d="M0.065,0.196L0.091,0.109L0.103,0.112C0.122,0.117 0.139,0.118 0.153,0.116C0.168,0.114 0.181,0.107 0.192,0.095C0.203,0.083 0.212,0.066 0.218,0.043L0.23,0.002L0.023,-0.546L0.139,-0.546L0.247,-0.236C0.259,-0.201 0.269,-0.167 0.277,-0.133C0.285,-0.099 0.293,-0.065 0.302,-0.031L0.27,-0.031C0.279,-0.065 0.288,-0.099 0.297,-0.133C0.305,-0.167 0.315,-0.201 0.327,-0.236L0.438,-0.546L0.553,-0.546L0.315,0.076C0.304,0.105 0.291,0.129 0.275,0.149C0.259,0.169 0.24,0.183 0.217,0.193C0.195,0.203 0.169,0.208 0.14,0.208C0.123,0.208 0.108,0.207 0.095,0.204C0.081,0.202 0.072,0.199 0.065,0.196Z" style="fill:rgb(152,152,159);fill-rule:nonzero;"/>
        </g>
        <g transform="matrix(22,0,0,22,380.353597,0)">
        </g>
        <g transform="matrix(22,0,0,22,386.216267,0)">
            <path d="M0.302,0.011C0.25,0.011 0.206,-0 0.168,-0.024C0.129,-0.047 0.1,-0.08 0.079,-0.122C0.058,-0.165 0.047,-0.214 0.047,-0.27C0.047,-0.327 0.058,-0.376 0.079,-0.419C0.1,-0.461 0.129,-0.494 0.168,-0.518C0.206,-0.541 0.25,-0.553 0.302,-0.553C0.33,-0.553 0.357,-0.549 0.381,-0.542C0.406,-0.534 0.428,-0.524 0.448,-0.51C0.468,-0.496 0.485,-0.479 0.499,-0.459C0.513,-0.439 0.523,-0.417 0.53,-0.392L0.428,-0.367C0.425,-0.381 0.419,-0.394 0.412,-0.406C0.404,-0.417 0.395,-0.427 0.385,-0.436C0.374,-0.444 0.362,-0.451 0.348,-0.455C0.334,-0.46 0.319,-0.462 0.302,-0.462C0.269,-0.462 0.242,-0.453 0.22,-0.436C0.199,-0.418 0.183,-0.395 0.172,-0.366C0.162,-0.337 0.156,-0.305 0.156,-0.27C0.156,-0.235 0.162,-0.204 0.172,-0.175C0.183,-0.146 0.199,-0.123 0.22,-0.105C0.242,-0.088 0.269,-0.079 0.302,-0.079C0.319,-0.079 0.335,-0.082 0.349,-0.087C0.363,-0.091 0.375,-0.098 0.386,-0.107C0.397,-0.115 0.406,-0.126 0.414,-0.138C0.421,-0.15 0.427,-0.164 0.43,-0.178L0.532,-0.154C0.525,-0.128 0.515,-0.105 0.501,-0.085C0.487,-0.064 0.47,-0.047 0.45,-0.033C0.43,-0.018 0.407,-0.007 0.382,0C0.357,0.008 0.33,0.011 0.302,0.011Z" style="fill:rgb(152,152,159);fill-rule:nonzero;"/>
        </g>
        <g transform="matrix(22,0,0,22,398.910305,0)">
            <path d="M0.302,0.011C0.251,0.011 0.206,-0 0.168,-0.024C0.129,-0.047 0.1,-0.08 0.079,-0.122C0.058,-0.165 0.047,-0.214 0.047,-0.27C0.047,-0.327 0.058,-0.376 0.079,-0.419C0.1,-0.461 0.129,-0.494 0.168,-0.518C0.206,-0.541 0.251,-0.553 0.302,-0.553C0.353,-0.553 0.398,-0.541 0.436,-0.518C0.475,-0.494 0.504,-0.461 0.525,-0.419C0.547,-0.376 0.557,-0.327 0.557,-0.27C0.557,-0.214 0.547,-0.165 0.525,-0.122C0.504,-0.08 0.475,-0.047 0.436,-0.024C0.398,-0 0.353,0.011 0.302,0.011ZM0.302,-0.079C0.335,-0.079 0.362,-0.088 0.384,-0.106C0.406,-0.123 0.422,-0.146 0.432,-0.175C0.443,-0.204 0.448,-0.236 0.448,-0.27C0.448,-0.305 0.443,-0.337 0.432,-0.366C0.422,-0.395 0.406,-0.418 0.384,-0.436C0.362,-0.453 0.335,-0.462 0.302,-0.462C0.269,-0.462 0.242,-0.453 0.22,-0.436C0.199,-0.418 0.183,-0.395 0.172,-0.366C0.162,-0.337 0.156,-0.305 0.156,-0.27C0.156,-0.236 0.162,-0.204 0.172,-0.175C0.183,-0.146 0.199,-0.123 0.22,-0.106C0.242,-0.088 0.269,-0.079 0.302,-0.079Z" style="fill:rgb(152,152,159);fill-rule:nonzero;"/>
        </g>
        <g transform="matrix(22,0,0,22,412.202254,0)">
            <path d="M0.18,-0.323L0.18,-0L0.072,-0L0.072,-0.546L0.175,-0.546L0.176,-0.412L0.165,-0.412C0.181,-0.461 0.204,-0.497 0.234,-0.519C0.264,-0.542 0.301,-0.553 0.344,-0.553C0.381,-0.553 0.413,-0.545 0.441,-0.529C0.469,-0.514 0.49,-0.491 0.506,-0.46C0.521,-0.43 0.529,-0.392 0.529,-0.347L0.529,-0L0.422,-0L0.422,-0.333C0.422,-0.373 0.411,-0.404 0.391,-0.426C0.371,-0.448 0.342,-0.459 0.307,-0.459C0.283,-0.459 0.261,-0.454 0.242,-0.443C0.222,-0.433 0.207,-0.417 0.196,-0.397C0.185,-0.377 0.18,-0.352 0.18,-0.323Z" style="fill:rgb(152,152,159);fill-rule:nonzero;"/>
        </g>
        <g transform="matrix(22,0,0,22,425.432322,0)">
            <path d="M0.268,0.011C0.229,0.011 0.193,0.006 0.163,-0.006C0.132,-0.017 0.107,-0.034 0.087,-0.056C0.067,-0.079 0.054,-0.106 0.048,-0.138L0.149,-0.159C0.157,-0.131 0.171,-0.11 0.191,-0.096C0.211,-0.083 0.237,-0.076 0.269,-0.076C0.304,-0.076 0.331,-0.083 0.352,-0.097C0.372,-0.112 0.382,-0.129 0.382,-0.15C0.382,-0.167 0.376,-0.181 0.364,-0.193C0.351,-0.204 0.332,-0.213 0.306,-0.218L0.214,-0.239C0.163,-0.251 0.126,-0.269 0.101,-0.294C0.076,-0.319 0.064,-0.351 0.064,-0.39C0.064,-0.423 0.073,-0.451 0.091,-0.475C0.109,-0.5 0.134,-0.519 0.166,-0.532C0.197,-0.546 0.234,-0.553 0.275,-0.553C0.314,-0.553 0.348,-0.547 0.376,-0.536C0.404,-0.524 0.427,-0.508 0.444,-0.488C0.461,-0.467 0.474,-0.444 0.482,-0.417L0.385,-0.395C0.378,-0.415 0.367,-0.431 0.35,-0.446C0.333,-0.461 0.308,-0.468 0.276,-0.468C0.246,-0.468 0.221,-0.461 0.202,-0.448C0.182,-0.435 0.172,-0.417 0.172,-0.397C0.172,-0.379 0.178,-0.364 0.192,-0.353C0.205,-0.341 0.226,-0.332 0.256,-0.326L0.344,-0.306C0.395,-0.295 0.432,-0.277 0.457,-0.252C0.481,-0.228 0.493,-0.197 0.493,-0.159C0.493,-0.125 0.484,-0.096 0.465,-0.071C0.446,-0.045 0.419,-0.025 0.385,-0.01C0.352,0.004 0.313,0.011 0.268,0.011Z" style="fill:rgb(152,152,159);fill-rule:nonzero;"/>
        </g>
        <g transform="matrix(22,0,0,22,437.282449,0)">
            <path d="M0.072,-0L0.072,-0.546L0.18,-0.546L0.18,-0L0.072,-0ZM0.126,-0.629C0.108,-0.629 0.092,-0.636 0.079,-0.648C0.066,-0.66 0.059,-0.675 0.059,-0.693C0.059,-0.711 0.066,-0.726 0.079,-0.738C0.092,-0.751 0.108,-0.757 0.126,-0.757C0.145,-0.757 0.161,-0.751 0.174,-0.738C0.188,-0.726 0.194,-0.711 0.194,-0.693C0.194,-0.675 0.188,-0.66 0.174,-0.648C0.161,-0.636 0.145,-0.629 0.126,-0.629Z" style="fill:rgb(152,152,159);fill-rule:nonzero;"/>
        </g>
        <g transform="matrix(22,0,0,22,442.823261,0)">
            <path d="M0.268,0.011C0.229,0.011 0.193,0.006 0.163,-0.006C0.132,-0.017 0.107,-0.034 0.087,-0.056C0.067,-0.079 0.054,-0.106 0.048,-0.138L0.149,-0.159C0.157,-0.131 0.171,-0.11 0.191,-0.096C0.211,-0.083 0.237,-0.076 0.269,-0.076C0.304,-0.076 0.331,-0.083 0.352,-0.097C0.372,-0.112 0.382,-0.129 0.382,-0.15C0.382,-0.167 0.376,-0.181 0.364,-0.193C0.351,-0.204 0.332,-0.213 0.306,-0.218L0.214,-0.239C0.163,-0.251 0.126,-0.269 0.101,-0.294C0.076,-0.319 0.064,-0.351 0.064,-0.39C0.064,-0.423 0.073,-0.451 0.091,-0.475C0.109,-0.5 0.134,-0.519 0.166,-0.532C0.197,-0.546 0.234,-0.553 0.275,-0.553C0.314,-0.553 0.348,-0.547 0.376,-0.536C0.404,-0.524 0.427,-0.508 0.444,-0.488C0.461,-0.467 0.474,-0.444 0.482,-0.417L0.385,-0.395C0.378,-0.415 0.367,-0.431 0.35,-0.446C0.333,-0.461 0.308,-0.468 0.276,-0.468C0.246,-0.468 0.221,-0.461 0.202,-0.448C0.182,-0.435 0.172,-0.417 0.172,-0.397C0.172,-0.379 0.178,-0.364 0.192,-0.353C0.205,-0.341 0.226,-0.332 0.256,-0.326L0.344,-0.306C0.395,-0.295 0.432,-0.277 0.457,-0.252C0.481,-0.228 0.493,-0.197 0.493,-0.159C0.493,-0.125 0.484,-0.096 0.465,-0.071C0.446,-0.045 0.419,-0.025 0.385,-0.01C0.352,0.004 0.313,0.011 0.268,0.011Z" style="fill:rgb(152,152,159);fill-rule:nonzero;"/>
        </g>
        <g transform="matrix(22,0,0,22,454.673388,0)">
            <path d="M0.306,-0.546L0.306,-0.459L0.01,-0.459L0.01,-0.546L0.306,-0.546ZM0.09,-0.676L0.197,-0.676L0.197,-0.148C0.197,-0.126 0.202,-0.109 0.211,-0.099C0.22,-0.089 0.235,-0.084 0.256,-0.084C0.262,-0.084 0.269,-0.085 0.278,-0.086C0.288,-0.087 0.295,-0.089 0.302,-0.09L0.321,-0.004C0.309,0 0.297,0.003 0.284,0.005C0.271,0.006 0.258,0.007 0.246,0.007C0.196,0.007 0.158,-0.006 0.13,-0.031C0.103,-0.057 0.09,-0.092 0.09,-0.139L0.09,-0.676Z" style="fill:rgb(152,152,159);fill-rule:nonzero;"/>
        </g>
        <g transform="matrix(22,0,0,22,461.94197,0)">
            <path d="M0.308,0.011C0.254,0.011 0.207,-0 0.168,-0.023C0.13,-0.047 0.1,-0.079 0.079,-0.121C0.058,-0.163 0.047,-0.213 0.047,-0.269C0.047,-0.325 0.057,-0.374 0.078,-0.417C0.099,-0.46 0.128,-0.493 0.166,-0.517C0.203,-0.541 0.248,-0.553 0.298,-0.553C0.329,-0.553 0.36,-0.548 0.389,-0.537C0.418,-0.527 0.444,-0.511 0.467,-0.489C0.49,-0.468 0.508,-0.439 0.522,-0.404C0.535,-0.37 0.542,-0.328 0.542,-0.278L0.542,-0.24L0.107,-0.24L0.107,-0.321L0.487,-0.321L0.437,-0.294C0.437,-0.327 0.431,-0.357 0.421,-0.382C0.411,-0.408 0.395,-0.428 0.375,-0.442C0.354,-0.457 0.329,-0.464 0.299,-0.464C0.268,-0.464 0.242,-0.457 0.221,-0.442C0.199,-0.427 0.183,-0.408 0.172,-0.384C0.16,-0.36 0.155,-0.334 0.155,-0.306L0.155,-0.251C0.155,-0.214 0.161,-0.182 0.174,-0.156C0.187,-0.13 0.205,-0.111 0.228,-0.097C0.251,-0.084 0.278,-0.077 0.309,-0.077C0.329,-0.077 0.347,-0.08 0.363,-0.086C0.38,-0.092 0.394,-0.1 0.406,-0.112C0.417,-0.124 0.426,-0.138 0.433,-0.155L0.533,-0.131C0.525,-0.103 0.51,-0.078 0.49,-0.057C0.469,-0.035 0.443,-0.019 0.412,-0.007C0.382,0.005 0.347,0.011 0.308,0.011Z" style="fill:rgb(152,152,159);fill-rule:nonzero;"/>
        </g>
        <g transform="matrix(22,0,0,22,474.860951,0)">
            <path d="M0.18,-0.323L0.18,-0L0.072,-0L0.072,-0.546L0.175,-0.546L0.176,-0.412L0.165,-0.412C0.181,-0.461 0.204,-0.497 0.234,-0.519C0.264,-0.542 0.301,-0.553 0.344,-0.553C0.381,-0.553 0.413,-0.545 0.441,-0.529C0.469,-0.514 0.49,-0.491 0.506,-0.46C0.521,-0.43 0.529,-0.392 0.529,-0.347L0.529,-0L0.422,-0L0.422,-0.333C0.422,-0.373 0.411,-0.404 0.391,-0.426C0.371,-0.448 0.342,-0.459 0.307,-0.459C0.283,-0.459 0.261,-0.454 0.242,-0.443C0.222,-0.433 0.207,-0.417 0.196,-0.397C0.185,-0.377 0.18,-0.352 0.18,-0.323Z" style="fill:rgb(152,152,159);fill-rule:nonzero;"/>
        </g>
        <g transform="matrix(22,0,0,22,488.09102,0)">
            <path d="M0.306,-0.546L0.306,-0.459L0.01,-0.459L0.01,-0.546L0.306,-0.546ZM0.09,-0.676L0.197,-0.676L0.197,-0.148C0.197,-0.126 0.202,-0.109 0.211,-0.099C0.22,-0.089 0.235,-0.084 0.256,-0.084C0.262,-0.084 0.269,-0.085 0.278,-0.086C0.288,-0.087 0.295,-0.089 0.302,-0.09L0.321,-0.004C0.309,0 0.297,0.003 0.284,0.005C0.271,0.006 0.258,0.007 0.246,0.007C0.196,0.007 0.158,-0.006 0.13,-0.031C0.103,-0.057 0.09,-0.092 0.09,-0.139L0.09,-0.676Z" style="fill:rgb(152,152,159);fill-rule:nonzero;"/>
        </g>
        <g transform="matrix(22,0,0,22,495.574445,0)">
            <path d="M0.152,0.007C0.132,0.007 0.115,0 0.101,-0.014C0.087,-0.028 0.08,-0.045 0.08,-0.065C0.08,-0.085 0.087,-0.102 0.101,-0.116C0.115,-0.13 0.132,-0.136 0.152,-0.136C0.172,-0.136 0.189,-0.13 0.203,-0.116C0.217,-0.102 0.224,-0.085 0.224,-0.065C0.224,-0.045 0.217,-0.028 0.203,-0.014C0.189,0 0.172,0.007 0.152,0.007Z" style="fill:rgb(152,152,159);fill-rule:nonzero;"/>
        </g>
    </g>
    <defs>
        <radialGradient id="_Radial1" cx="0" cy="0" r="1" gradientUnits="userSpaceOnUse" gradientTransform="matrix(320,0,0,320,720,280)"><stop offset="0" style="stop-color:rgb(65,209,255);stop-opacity:0.5"/><stop offset="0.3" style="stop-color:rgb(91,141,239);stop-opacity:0.3"/><stop offset="0.6" style="stop-color:rgb(74,124,222);stop-opacity:0.12"/><stop offset="1" style="stop-color:rgb(27,27,31);stop-opacity:0"/></radialGradient>
        <linearGradient id="_Linear2" x1="0" y1="0" x2="1" y2="0" gradientUnits="userSpaceOnUse" gradientTransform="matrix(3.185686,0.245326,-0.245326,3.185686,-0,-0.717285)"><stop offset="0" style="stop-color:rgb(91,141,239);stop-opacity:1"/><stop offset="0.3" style="stop-color:rgb(91,141,239);stop-opacity:1"/><stop offset="1" style="stop-color:rgb(65,209,255);stop-opacity:1"/></linearGradient>
        <linearGradient id="_Linear3" x1="0" y1="0" x2="1" y2="0" gradientUnits="userSpaceOnUse" gradientTransform="matrix(3.185686,0.245326,-0.245326,3.185686,-0.654785,-0.717285)"><stop offset="0" style="stop-color:rgb(91,141,239);stop-opacity:1"/><stop offset="0.3" style="stop-color:rgb(91,141,239);stop-opacity:1"/><stop offset="1" style="stop-color:rgb(65,209,255);stop-opacity:1"/></linearGradient>
        <linearGradient id="_Linear4" x1="0" y1="0" x2="1" y2="0" gradientUnits="userSpaceOnUse" gradientTransform="matrix(3.185686,0.245326,-0.245326,3.185686,-1.242537,-0.717285)"><stop offset="0" style="stop-color:rgb(91,141,239);stop-opacity:1"/><stop offset="0.3" style="stop-color:rgb(91,141,239);stop-opacity:1"/><stop offset="1" style="stop-color:rgb(65,209,255);stop-opacity:1"/></linearGradient>
        <linearGradient id="_Linear5" x1="0" y1="0" x2="1" y2="0" gradientUnits="userSpaceOnUse" gradientTransform="matrix(3.185686,0.245326,-0.245326,3.185686,-1.846803,-0.717285)"><stop offset="0" style="stop-color:rgb(91,141,239);stop-opacity:1"/><stop offset="0.3" style="stop-color:rgb(91,141,239);stop-opacity:1"/><stop offset="1" style="stop-color:rgb(65,209,255);stop-opacity:1"/></linearGradient>
        <linearGradient id="_Linear6" x1="0" y1="0" x2="1" y2="0" gradientUnits="userSpaceOnUse" gradientTransform="matrix(3.185686,0.245326,-0.245326,3.185686,-2.508483,-0.717285)"><stop offset="0" style="stop-color:rgb(91,141,239);stop-opacity:1"/><stop offset="0.3" style="stop-color:rgb(91,141,239);stop-opacity:1"/><stop offset="1" style="stop-color:rgb(65,209,255);stop-opacity:1"/></linearGradient>
        <linearGradient id="_Linear7" x1="0" y1="0" x2="1" y2="0" gradientUnits="userSpaceOnUse" gradientTransform="matrix(3.185686,0.245326,-0.245326,3.185686,-3.101783,-0.717285)"><stop offset="0" style="stop-color:rgb(91,141,239);stop-opacity:1"/><stop offset="0.3" style="stop-color:rgb(91,141,239);stop-opacity:1"/><stop offset="1" style="stop-color:rgb(65,209,255);stop-opacity:1"/></linearGradient>
    </defs>
</svg>
